<svg width="604" height="189" viewBox="0 0 604 189" fill="none" xmlns="http://www.w3.org/2000/svg">
<path d="M56.7731 14.7321C57.2764 13.0544 55.3699 11.1989 52.5149 10.5877C49.6598 9.97657 46.9372 10.8412 46.4339 12.5189C45.9305 14.1966 47.837 16.0521 50.6921 16.6633C53.5472 17.2744 56.2697 16.4098 56.7731 14.7321Z" fill="white"/>
<path d="M21.9068 14.5423C22.4102 12.8646 20.5037 11.0091 17.6486 10.3979C14.7935 9.78674 12.071 10.6513 11.5676 12.329C11.0643 14.0067 12.9708 15.8622 15.8259 16.4734C18.6809 17.0846 21.4035 16.22 21.9068 14.5423Z" fill="#3F3D56"/>
<path d="M63.316 41.7772C63.8193 40.0995 61.9128 38.244 59.0577 37.6329C56.2026 37.0217 53.4801 37.8863 52.9767 39.564C52.4734 41.2417 54.3799 43.0972 57.235 43.7084C60.0901 44.3195 62.8126 43.455 63.316 41.7772Z" fill="#FF6584"/>
<path d="M71.4437 48.3802C71.6504 46.8176 70.7747 45.4523 69.4878 45.3309C68.2008 45.2094 66.99 46.3777 66.7833 47.9404C66.5766 49.503 67.4523 50.8682 68.7392 50.9897C70.0261 51.1112 71.237 49.9429 71.4437 48.3802Z" fill="#E6E6E6"/>
<path d="M74.3107 66.8357C74.5174 65.2731 73.6417 63.9078 72.3548 63.7864C71.0679 63.6649 69.857 64.8332 69.6503 66.3959C69.4436 67.9585 70.3193 69.3238 71.6062 69.4453C72.8931 69.5667 74.104 68.3984 74.3107 66.8357Z" fill="#3F3D56"/>
<path d="M38.6649 31.6649C38.8716 30.1023 37.9959 28.7371 36.709 28.6156C35.4221 28.4941 34.2113 29.6624 34.0045 31.2251C33.7978 32.7877 34.6735 34.153 35.9604 34.2744C37.2474 34.3959 38.4582 33.2276 38.6649 31.6649Z" fill="#E6E6E6"/>
<path d="M56.2113 26.0968C56.418 24.5342 55.5423 23.169 54.2554 23.0475C52.9684 22.926 51.7576 24.0943 51.5509 25.657C51.3442 27.2196 52.2199 28.5849 53.5068 28.7063C54.7937 28.8278 56.0045 27.6595 56.2113 26.0968Z" fill="#FF6584"/>
<path d="M36.6475 11.2475C36.8542 9.68484 35.519 8.27623 33.6653 8.10127C31.8116 7.92631 30.1413 9.05124 29.9346 10.6139C29.7278 12.1765 31.063 13.5851 32.9167 13.7601C34.7705 13.9351 36.4408 12.8101 36.6475 11.2475Z" fill="#3F3D56"/>
<path d="M191.867 7.81155C192.37 6.13384 190.464 4.27833 187.609 3.66715C184.753 3.05598 182.031 3.92057 181.528 5.59828C181.024 7.27598 182.931 9.13149 185.786 9.74267C188.641 10.3538 191.363 9.48926 191.867 7.81155Z" fill="white"/>
<path d="M157.001 7.6217C157.504 5.944 155.597 4.08849 152.742 3.47731C149.887 2.86613 147.165 3.73073 146.661 5.40843C146.158 7.08614 148.065 8.94165 150.92 9.55283C153.775 10.164 156.497 9.29941 157.001 7.6217Z" fill="#3F3D56"/>
<path d="M198.41 34.8567C198.913 33.179 197.007 31.3234 194.151 30.7123C191.296 30.1011 188.574 30.9657 188.07 32.6434C187.567 34.3211 189.474 36.1766 192.329 36.7878C195.184 37.399 197.906 36.5344 198.41 34.8567Z" fill="#FF6584"/>
<path d="M206.537 41.4596C206.744 39.897 205.868 38.5318 204.582 38.4103C203.295 38.2888 202.084 39.4571 201.877 41.0198C201.67 42.5824 202.546 43.9476 203.833 44.0691C205.12 44.1906 206.331 43.0223 206.537 41.4596Z" fill="#E6E6E6"/>
<path d="M209.404 59.9151C209.611 58.3525 208.735 56.9872 207.449 56.8658C206.162 56.7443 204.951 57.9126 204.744 59.4753C204.537 61.0379 205.413 62.4032 206.7 62.5247C207.987 62.6461 209.198 61.4778 209.404 59.9151Z" fill="#3F3D56"/>
<path d="M173.759 24.7444C173.965 23.1817 173.09 21.8165 171.803 21.695C170.516 21.5735 169.305 22.7418 169.098 24.3045C168.892 25.8671 169.767 27.2324 171.054 27.3538C172.341 27.4753 173.552 26.307 173.759 24.7444Z" fill="#E6E6E6"/>
<path d="M191.305 19.1763C191.512 17.6136 190.636 16.2484 189.349 16.1269C188.062 16.0055 186.851 17.1738 186.645 18.7364C186.438 20.299 187.314 21.6643 188.601 21.7857C189.887 21.9072 191.098 20.7389 191.305 19.1763Z" fill="#FF6584"/>
<path d="M171.741 4.32689C171.948 2.76425 170.613 1.35564 168.759 1.18068C166.905 1.00571 165.235 2.13065 165.028 3.69329C164.822 5.25593 166.157 6.66454 168.01 6.8395C169.864 7.01447 171.535 5.88953 171.741 4.32689Z" fill="#3F3D56"/>
<path d="M585.804 20.6641C586.308 18.9864 584.401 17.1309 581.546 16.5197C578.691 15.9085 575.968 16.7731 575.465 18.4508C574.962 20.1285 576.868 21.984 579.723 22.5952C582.578 23.2064 585.301 22.3418 585.804 20.6641Z" fill="white"/>
<path d="M550.938 20.4742C551.441 18.7965 549.535 16.941 546.68 16.3298C543.825 15.7187 541.102 16.5833 540.599 18.261C540.096 19.9387 542.002 21.7942 544.857 22.4054C547.712 23.0165 550.435 22.1519 550.938 20.4742Z" fill="#3F3D56"/>
<path d="M592.347 47.7092C592.851 46.0315 590.944 44.176 588.089 43.5648C585.234 42.9536 582.511 43.8182 582.008 45.4959C581.505 47.1736 583.411 49.0291 586.266 49.6403C589.121 50.2515 591.844 49.3869 592.347 47.7092Z" fill="#FF6584"/>
<path d="M600.475 54.3122C600.682 52.7495 599.806 51.3843 598.519 51.2628C597.232 51.1413 596.021 52.3096 595.815 53.8723C595.608 55.4349 596.484 56.8002 597.77 56.9216C599.057 57.0431 600.268 55.8748 600.475 54.3122Z" fill="#E6E6E6"/>
<path d="M603.342 72.7677C603.549 71.205 602.673 69.8398 601.386 69.7183C600.099 69.5968 598.888 70.7651 598.682 72.3278C598.475 73.8904 599.351 75.2557 600.638 75.3772C601.924 75.4987 603.135 74.3303 603.342 72.7677Z" fill="#3F3D56"/>
<path d="M567.696 37.5969C567.903 36.0342 567.027 34.669 565.74 34.5475C564.453 34.4261 563.242 35.5944 563.036 37.157C562.829 38.7197 563.705 40.0849 564.992 40.2064C566.279 40.3278 567.489 39.1595 567.696 37.5969Z" fill="#E6E6E6"/>
<path d="M585.243 32.0288C585.449 30.4661 584.574 29.1009 583.287 28.9794C582 28.858 580.789 30.0263 580.582 31.5889C580.375 33.1516 581.251 34.5168 582.538 34.6383C583.825 34.7597 585.036 33.5914 585.243 32.0288Z" fill="#FF6584"/>
<path d="M565.679 17.1794C565.885 15.6168 564.55 14.2082 562.697 14.0332C560.843 13.8582 559.173 14.9832 558.966 16.5458C558.759 18.1085 560.094 19.5171 561.948 19.692C563.802 19.867 565.472 18.7421 565.679 17.1794Z" fill="#3F3D56"/>
<path d="M320.773 133.371C321.276 131.693 319.37 129.838 316.515 129.226C313.66 128.615 310.937 129.48 310.434 131.158C309.931 132.835 311.837 134.691 314.692 135.302C317.547 135.913 320.27 135.049 320.773 133.371Z" fill="white"/>
<path d="M285.907 133.181C286.41 131.503 284.504 129.648 281.649 129.037C278.794 128.425 276.071 129.29 275.568 130.968C275.064 132.645 276.971 134.501 279.826 135.112C282.681 135.723 285.403 134.859 285.907 133.181Z" fill="#3F3D56"/>
<path d="M327.316 160.416C327.819 158.738 325.913 156.883 323.058 156.272C320.203 155.66 317.48 156.525 316.977 158.203C316.473 159.88 318.38 161.736 321.235 162.347C324.09 162.958 326.813 162.094 327.316 160.416Z" fill="#FF6584"/>
<path d="M335.444 167.019C335.65 165.456 334.775 164.091 333.488 163.97C332.201 163.848 330.99 165.016 330.783 166.579C330.577 168.142 331.452 169.507 332.739 169.628C334.026 169.75 335.237 168.582 335.444 167.019Z" fill="#E6E6E6"/>
<path d="M338.311 185.474C338.517 183.912 337.642 182.547 336.355 182.425C335.068 182.304 333.857 183.472 333.65 185.035C333.444 186.597 334.319 187.962 335.606 188.084C336.893 188.205 338.104 187.037 338.311 185.474Z" fill="#3F3D56"/>
<path d="M302.665 150.304C302.872 148.741 301.996 147.376 300.709 147.254C299.422 147.133 298.211 148.301 298.005 149.864C297.798 151.426 298.674 152.792 299.96 152.913C301.247 153.035 302.458 151.866 302.665 150.304Z" fill="#E6E6E6"/>
<path d="M320.211 144.736C320.418 143.173 319.542 141.808 318.255 141.686C316.968 141.565 315.758 142.733 315.551 144.296C315.344 145.858 316.22 147.224 317.507 147.345C318.794 147.467 320.005 146.298 320.211 144.736Z" fill="#FF6584"/>
<path d="M300.647 129.886C300.854 128.324 299.519 126.915 297.665 126.74C295.812 126.565 294.141 127.69 293.935 129.253C293.728 130.815 295.063 132.224 296.917 132.399C298.77 132.574 300.441 131.449 300.647 129.886Z" fill="#3F3D56"/>
<path d="M188.773 131.394C189.276 129.716 187.37 127.86 184.515 127.249C181.66 126.638 178.937 127.503 178.434 129.18C177.931 130.858 179.837 132.713 182.692 133.325C185.547 133.936 188.27 133.071 188.773 131.394Z" fill="white"/>
<path d="M153.907 131.204C154.41 129.526 152.504 127.67 149.649 127.059C146.794 126.448 144.071 127.313 143.568 128.99C143.064 130.668 144.971 132.524 147.826 133.135C150.681 133.746 153.403 132.881 153.907 131.204Z" fill="#3F3D56"/>
<path d="M195.316 158.439C195.819 156.761 193.913 154.905 191.058 154.294C188.203 153.683 185.48 154.548 184.977 156.225C184.473 157.903 186.38 159.759 189.235 160.37C192.09 160.981 194.813 160.116 195.316 158.439Z" fill="#FF6584"/>
<path d="M203.444 165.042C203.65 163.479 202.775 162.114 201.488 161.992C200.201 161.871 198.99 163.039 198.783 164.602C198.577 166.164 199.452 167.53 200.739 167.651C202.026 167.773 203.237 166.604 203.444 165.042Z" fill="#E6E6E6"/>
<path d="M206.311 183.497C206.517 181.934 205.642 180.569 204.355 180.448C203.068 180.326 201.857 181.495 201.65 183.057C201.444 184.62 202.319 185.985 203.606 186.107C204.893 186.228 206.104 185.06 206.311 183.497Z" fill="#3F3D56"/>
<path d="M170.665 148.326C170.872 146.764 169.996 145.398 168.709 145.277C167.422 145.156 166.211 146.324 166.005 147.886C165.798 149.449 166.674 150.814 167.96 150.936C169.247 151.057 170.458 149.889 170.665 148.326Z" fill="#E6E6E6"/>
<path d="M188.211 142.758C188.418 141.196 187.542 139.83 186.255 139.709C184.968 139.587 183.758 140.756 183.551 142.318C183.344 143.881 184.22 145.246 185.507 145.368C186.794 145.489 188.005 144.321 188.211 142.758Z" fill="#FF6584"/>
<path d="M168.647 127.909C168.854 126.346 167.519 124.938 165.665 124.763C163.812 124.588 162.141 125.713 161.935 127.275C161.728 128.838 163.063 130.247 164.917 130.421C166.77 130.596 168.441 129.472 168.647 127.909Z" fill="#3F3D56"/>
<path d="M578.586 129.416C579.089 127.739 577.182 125.883 574.327 125.272C571.472 124.661 568.75 125.525 568.246 127.203C567.743 128.881 569.65 130.736 572.505 131.347C575.36 131.959 578.082 131.094 578.586 129.416Z" fill="white"/>
<path d="M543.719 129.226C544.223 127.549 542.316 125.693 539.461 125.082C536.606 124.471 533.883 125.335 533.38 127.013C532.877 128.691 534.783 130.546 537.638 131.158C540.493 131.769 543.216 130.904 543.719 129.226Z" fill="#3F3D56"/>
<path d="M585.128 156.461C585.632 154.784 583.725 152.928 580.87 152.317C578.015 151.706 575.293 152.57 574.789 154.248C574.286 155.926 576.192 157.781 579.047 158.392C581.903 159.004 584.625 158.139 585.128 156.461Z" fill="#FF6584"/>
<path d="M593.256 163.064C593.463 161.502 592.587 160.136 591.3 160.015C590.013 159.893 588.803 161.062 588.596 162.624C588.389 164.187 589.265 165.552 590.552 165.674C591.839 165.795 593.049 164.627 593.256 163.064Z" fill="#E6E6E6"/>
<path d="M596.123 181.52C596.33 179.957 595.454 178.592 594.167 178.47C592.88 178.349 591.67 179.517 591.463 181.08C591.256 182.643 592.132 184.008 593.419 184.129C594.706 184.251 595.916 183.082 596.123 181.52Z" fill="#3F3D56"/>
<path d="M560.477 146.349C560.684 144.786 559.808 143.421 558.522 143.3C557.235 143.178 556.024 144.347 555.817 145.909C555.61 147.472 556.486 148.837 557.773 148.959C559.06 149.08 560.271 147.912 560.477 146.349Z" fill="#E6E6E6"/>
<path d="M578.024 140.781C578.23 139.218 577.355 137.853 576.068 137.732C574.781 137.61 573.57 138.778 573.363 140.341C573.157 141.904 574.032 143.269 575.319 143.39C576.606 143.512 577.817 142.344 578.024 140.781Z" fill="#FF6584"/>
<path d="M558.46 125.932C558.667 124.369 557.332 122.96 555.478 122.785C553.624 122.61 551.954 123.735 551.747 125.298C551.54 126.861 552.876 128.269 554.729 128.444C556.583 128.619 558.253 127.494 558.46 125.932Z" fill="#3F3D56"/>
<path d="M310.461 7.81155C310.964 6.13384 309.057 4.27833 306.202 3.66715C303.347 3.05598 300.625 3.92057 300.121 5.59828C299.618 7.27598 301.524 9.13149 304.38 9.74267C307.235 10.3538 309.957 9.48926 310.461 7.81155Z" fill="white"/>
<path d="M275.594 7.6217C276.098 5.944 274.191 4.08849 271.336 3.47731C268.481 2.86613 265.758 3.73073 265.255 5.40843C264.752 7.08614 266.658 8.94165 269.513 9.55283C272.368 10.164 275.091 9.29941 275.594 7.6217Z" fill="#3F3D56"/>
<path d="M317.003 34.8567C317.507 33.179 315.6 31.3234 312.745 30.7123C309.89 30.1011 307.168 30.9657 306.664 32.6434C306.161 34.3211 308.067 36.1766 310.922 36.7878C313.778 37.399 316.5 36.5344 317.003 34.8567Z" fill="#FF6584"/>
<path d="M325.131 41.4596C325.338 39.897 324.462 38.5318 323.175 38.4103C321.888 38.2888 320.678 39.4571 320.471 41.0198C320.264 42.5824 321.14 43.9476 322.427 44.0691C323.714 44.1906 324.924 43.0223 325.131 41.4596Z" fill="#E6E6E6"/>
<path d="M327.998 59.9151C328.205 58.3525 327.329 56.9872 326.042 56.8658C324.755 56.7443 323.545 57.9126 323.338 59.4753C323.131 61.0379 324.007 62.4032 325.294 62.5247C326.581 62.6461 327.791 61.4778 327.998 59.9151Z" fill="#3F3D56"/>
<path d="M292.352 24.7444C292.559 23.1817 291.683 21.8165 290.397 21.695C289.11 21.5735 287.899 22.7418 287.692 24.3045C287.485 25.8671 288.361 27.2324 289.648 27.3538C290.935 27.4753 292.146 26.307 292.352 24.7444Z" fill="#E6E6E6"/>
<path d="M309.899 19.1763C310.105 17.6136 309.23 16.2484 307.943 16.1269C306.656 16.0055 305.445 17.1738 305.238 18.7364C305.032 20.299 305.907 21.6643 307.194 21.7857C308.481 21.9072 309.692 20.7389 309.899 19.1763Z" fill="#FF6584"/>
<path d="M290.335 4.32689C290.542 2.76425 289.207 1.35564 287.353 1.18068C285.499 1.00571 283.829 2.13065 283.622 3.69329C283.415 5.25593 284.751 6.66454 286.604 6.8395C288.458 7.01447 290.128 5.88953 290.335 4.32689Z" fill="#3F3D56"/>
<path d="M454.836 7.81155C455.339 6.13384 453.432 4.27833 450.577 3.66715C447.722 3.05598 445 3.92057 444.496 5.59828C443.993 7.27598 445.9 9.13149 448.755 9.74267C451.61 10.3538 454.332 9.48926 454.836 7.81155Z" fill="white"/>
<path d="M419.969 7.6217C420.473 5.944 418.566 4.08849 415.711 3.47731C412.856 2.86613 410.133 3.73073 409.63 5.40843C409.127 7.08614 411.033 8.94165 413.888 9.55283C416.743 10.164 419.466 9.29941 419.969 7.6217Z" fill="#3F3D56"/>
<path d="M461.378 34.8567C461.882 33.179 459.975 31.3234 457.12 30.7123C454.265 30.1011 451.543 30.9657 451.039 32.6434C450.536 34.3211 452.442 36.1766 455.297 36.7878C458.153 37.399 460.875 36.5344 461.378 34.8567Z" fill="#FF6584"/>
<path d="M469.506 41.4596C469.713 39.897 468.837 38.5318 467.55 38.4103C466.263 38.2888 465.053 39.4571 464.846 41.0198C464.639 42.5824 465.515 43.9476 466.802 44.0691C468.089 44.1906 469.299 43.0223 469.506 41.4596Z" fill="#E6E6E6"/>
<path d="M472.373 59.9151C472.58 58.3525 471.704 56.9872 470.417 56.8658C469.13 56.7443 467.92 57.9126 467.713 59.4753C467.506 61.0379 468.382 62.4032 469.669 62.5247C470.956 62.6461 472.166 61.4778 472.373 59.9151Z" fill="#3F3D56"/>
<path d="M436.727 24.7444C436.934 23.1817 436.058 21.8165 434.771 21.695C433.485 21.5735 432.274 22.7418 432.067 24.3045C431.86 25.8671 432.736 27.2324 434.023 27.3538C435.31 27.4753 436.521 26.307 436.727 24.7444Z" fill="#E6E6E6"/>
<path d="M454.274 19.1763C454.48 17.6136 453.605 16.2484 452.318 16.1269C451.031 16.0055 449.82 17.1738 449.613 18.7364C449.407 20.299 450.282 21.6643 451.569 21.7857C452.856 21.9072 454.067 20.7389 454.274 19.1763Z" fill="#FF6584"/>
<path d="M434.71 4.32689C434.917 2.76425 433.582 1.35564 431.728 1.18068C429.874 1.00571 428.204 2.13065 427.997 3.69329C427.79 5.25593 429.126 6.66454 430.979 6.8395C432.833 7.01447 434.503 5.88953 434.71 4.32689Z" fill="#3F3D56"/>
<path d="M457.929 133.371C458.433 131.693 456.526 129.838 453.671 129.226C450.816 128.615 448.093 129.48 447.59 131.158C447.087 132.835 448.993 134.691 451.848 135.302C454.703 135.913 457.426 135.049 457.929 133.371Z" fill="white"/>
<path d="M423.063 133.181C423.566 131.503 421.66 129.648 418.805 129.037C415.95 128.425 413.227 129.29 412.724 130.968C412.221 132.645 414.127 134.501 416.982 135.112C419.837 135.723 422.56 134.859 423.063 133.181Z" fill="#3F3D56"/>
<path d="M464.472 160.416C464.976 158.738 463.069 156.883 460.214 156.272C457.359 155.66 454.636 156.525 454.133 158.203C453.63 159.88 455.536 161.736 458.391 162.347C461.246 162.958 463.969 162.094 464.472 160.416Z" fill="#FF6584"/>
<path d="M472.6 167.019C472.807 165.456 471.931 164.091 470.644 163.97C469.357 163.848 468.146 165.016 467.94 166.579C467.733 168.142 468.609 169.507 469.895 169.628C471.182 169.75 472.393 168.582 472.6 167.019Z" fill="#E6E6E6"/>
<path d="M475.467 185.474C475.674 183.912 474.798 182.547 473.511 182.425C472.224 182.304 471.013 183.472 470.807 185.035C470.6 186.597 471.476 187.962 472.762 188.084C474.049 188.205 475.26 187.037 475.467 185.474Z" fill="#3F3D56"/>
<path d="M439.821 150.304C440.028 148.741 439.152 147.376 437.865 147.254C436.578 147.133 435.368 148.301 435.161 149.864C434.954 151.426 435.83 152.792 437.117 152.913C438.404 153.035 439.614 151.866 439.821 150.304Z" fill="#E6E6E6"/>
<path d="M457.367 144.736C457.574 143.173 456.699 141.808 455.412 141.686C454.125 141.565 452.914 142.733 452.707 144.296C452.5 145.858 453.376 147.224 454.663 147.345C455.95 147.467 457.161 146.298 457.367 144.736Z" fill="#FF6584"/>
<path d="M437.804 129.886C438.01 128.324 436.675 126.915 434.822 126.74C432.968 126.565 431.298 127.69 431.091 129.253C430.884 130.815 432.219 132.224 434.073 132.399C435.927 132.574 437.597 131.449 437.804 129.886Z" fill="#3F3D56"/>
<path d="M1.95633 159.468C2.43567 159.489 2.91015 159.368 3.31558 159.122C3.721 158.876 4.03778 158.517 4.22289 158.092C4.40801 157.668 4.45252 157.199 4.35048 156.75C4.24844 156.3 4.00473 155.892 3.65238 155.579L3.492 154.968C3.51312 154.919 3.5344 154.87 3.55577 154.821C4.03866 153.728 4.8478 152.796 5.88162 152.142C6.91543 151.488 8.12782 151.141 9.36643 151.145C10.605 151.15 11.8147 151.505 12.8434 152.166C13.8721 152.828 14.674 153.766 15.1485 154.863C17.0445 159.241 19.4584 163.626 20.0528 168.255C20.3146 170.301 20.2042 172.375 19.7264 174.385C24.1797 165.072 26.4922 154.95 26.5071 144.705C26.5081 142.134 26.3591 139.565 26.0609 137.01C25.8144 134.916 25.4724 132.836 25.035 130.771C22.6481 119.569 17.5234 109.069 10.0818 100.133C6.48 98.2494 3.56717 95.3521 1.73585 91.8321C1.07241 90.5668 0.603515 89.2161 0.343746 87.822C0.750059 87.8731 1.87575 81.9408 1.5693 81.5768C2.13552 80.7531 3.14898 80.3437 3.76738 79.5399C6.8429 75.5423 11.0802 76.2403 13.2922 81.6727C18.0177 83.9591 18.0634 87.7509 15.1639 91.3979C13.3193 93.7181 13.0658 96.8576 11.4472 99.3415C11.6137 99.5459 11.7869 99.7439 11.9534 99.9482C14.9974 103.701 17.6504 107.73 19.8745 111.979C19.3337 107.219 19.9791 102.404 21.758 97.9304C23.5608 93.7609 26.9399 90.2494 29.9156 86.6449C30.7027 85.6766 31.7715 84.9538 32.987 84.5677C34.2025 84.1817 35.51 84.1498 36.7444 84.476C37.9788 84.8023 39.0846 85.4721 39.922 86.4007C40.7594 87.3293 41.2909 88.4751 41.4492 89.6932C41.4553 89.7464 41.4612 89.7995 41.467 89.8526C41.025 90.0917 40.5924 90.3454 40.169 90.6138C39.6372 90.9544 39.2251 91.4411 38.9868 92.0101C38.7484 92.5791 38.695 93.2039 38.8333 93.8025C38.9717 94.4012 39.2954 94.9458 39.7621 95.365C40.2288 95.7843 40.8168 96.0586 41.4489 96.152L41.5136 96.1616C41.3562 97.6888 41.0779 99.2022 40.6811 100.689C44.4986 114.842 36.2569 119.997 24.4889 120.229C24.2292 120.357 23.976 120.484 23.7162 120.606C25.9507 126.677 27.3523 133 27.8858 139.418C28.1878 143.204 28.17 147.007 27.8325 150.79L27.8525 150.656C28.7052 146.449 31.046 142.653 34.4799 139.909C39.5801 135.893 46.7857 134.414 52.2879 131.185C52.8726 130.825 53.5525 130.633 54.2474 130.631C54.9423 130.63 55.6232 130.819 56.2098 131.176C56.7964 131.533 57.2641 132.044 57.558 132.647C57.8518 133.251 57.9594 133.923 57.8682 134.583L57.8456 134.724C57.0254 135.044 56.2269 135.413 55.4545 135.829C55.0125 136.068 54.5798 136.322 54.1565 136.59C53.6247 136.931 53.2127 137.417 52.9743 137.986C52.736 138.555 52.6825 139.18 52.8208 139.779C52.9591 140.377 53.2829 140.922 53.7496 141.341C54.2163 141.761 54.8043 142.035 55.4364 142.128L55.5011 142.138C55.5477 142.144 55.5878 142.151 55.6343 142.157C54.2329 145.365 52.2659 148.318 49.8196 150.886C47.4326 163.241 37.1805 164.414 26.214 160.816H26.2073C25.0041 165.828 23.2607 170.708 21.0053 175.375H2.42198C2.35532 175.177 2.2954 174.973 2.23542 174.775C3.95554 174.878 5.68245 174.78 7.37757 174.481C5.99879 172.859 4.62002 171.224 3.24124 169.602C3.21048 169.572 3.18151 169.54 3.15457 169.507C2.45521 168.676 1.74921 167.853 1.04984 167.023L1.04946 167.022C1.01218 164.477 1.31672 161.938 1.95564 159.468L1.95633 159.468Z" fill="#F2F2F2"/>
</svg>
