<svg width="382" height="178" viewBox="0 0 382 178" fill="none" xmlns="http://www.w3.org/2000/svg">
<path d="M381.872 101.258C379.101 47.6424 338.726 3.92826 288.516 0.264156C265.371 -1.47113 242.376 5.38247 223.424 19.6642C204.472 33.9459 190.729 54.7777 184.523 78.6314C183.305 78.5848 182.087 78.5325 180.858 78.5325C159.127 78.5368 137.982 86.0481 120.585 99.9428C103.188 113.838 90.4756 133.369 84.349 155.614C69.9492 148.863 53.8576 147.399 38.5942 151.45C23.3308 155.5 9.75752 164.838 0 178H313.758C352.305 178 383.515 143.935 381.943 102.841C381.923 102.314 381.899 101.786 381.872 101.258Z" fill="#E6E6E6"/>
<g clip-path="url(#clip0_13_959)">
<path d="M350 168.451C350 170.087 338.093 171.582 318.407 172.736C314.827 172.943 310.991 173.141 306.922 173.327C303.407 173.485 299.722 173.635 295.869 173.776C292.135 173.91 288.259 174.034 284.239 174.148C271.545 174.512 257.511 174.774 242.603 174.905C238.985 174.938 235.319 174.963 231.604 174.981C227.735 174.998 223.821 175.006 219.863 175.005C147.99 175.005 89.7286 172.074 89.7286 168.458C89.7286 164.842 147.99 161.912 219.863 161.912C250.806 161.912 279.222 162.457 301.557 163.362L303.999 163.462H304.013C332.147 164.659 350 166.461 350 168.451Z" fill="#3F3D56"/>
<path opacity="0.15" d="M350 168.451C350 170.087 338.093 171.582 318.407 172.736C314.827 172.943 310.991 173.141 306.922 173.327C303.407 173.485 299.722 173.635 295.869 173.776C292.135 173.91 288.259 174.034 284.239 174.148C271.545 174.512 257.511 174.774 242.603 174.905C238.985 174.938 235.319 174.963 231.604 174.981C227.735 174.998 223.821 175.006 219.863 175.005C147.99 175.005 89.7286 172.074 89.7286 168.458C89.7286 164.842 147.99 161.912 219.863 161.912C250.806 161.912 279.222 162.457 301.557 163.362L303.999 163.462H304.013C332.147 164.659 350 166.461 350 168.451Z" fill="black"/>
<path d="M339.271 167.299C339.271 168.666 327.364 169.918 307.678 170.87C304.101 171.044 300.262 171.208 296.196 171.363C292.679 171.496 288.995 171.621 285.143 171.739C281.409 171.85 277.533 171.954 273.513 172.051C260.817 172.355 246.783 172.574 231.874 172.684C228.259 172.711 224.593 172.731 220.875 172.746C217.006 172.76 213.093 172.767 209.137 172.767C137.264 172.767 79 170.318 79 167.292C79 164.266 137.264 161.817 209.137 161.817C240.078 161.817 268.494 162.272 290.828 163.029L293.27 163.112H293.287C321.43 164.128 339.271 165.626 339.271 167.299Z" fill="#3F3D56"/>
<path d="M112.611 117.564L109.343 107.52L187.585 106.661L190.79 116.604L112.611 117.564Z" fill="#3F3D56"/>
<path opacity="0.15" d="M112.611 117.564L109.343 107.52L187.585 106.661L190.79 116.604L112.611 117.564Z" fill="black"/>
<path d="M107.395 117.564L104.127 107.52L182.369 106.661L185.574 116.604L107.395 117.564Z" fill="#3F3D56"/>
<path d="M240.962 102.131C232.873 102.131 226.497 98.907 221.836 92.459C217.174 86.0111 214.844 78.1999 214.844 69.0255C214.844 59.7892 217.098 51.9939 221.606 45.6396C226.114 39.2853 232.473 36.1113 240.682 36.1177C249.389 36.1177 255.948 39.4654 260.361 46.161C264.774 52.8565 266.982 60.6057 266.983 69.4088C266.983 78.1483 264.699 85.7881 260.131 92.3281C255.563 98.8681 249.174 102.136 240.962 102.131ZM241.199 94.8776C246.521 94.8776 250.499 92.5487 253.132 87.8909C255.766 83.2331 257.082 77.3612 257.082 70.2753C257.082 62.3879 255.735 55.9297 253.04 50.9005C250.345 45.8713 246.212 43.356 240.64 43.3544C230.05 43.3544 224.754 51.8003 224.754 68.6923C224.754 86.1507 230.234 94.8792 241.195 94.8776H241.199ZM243.864 164.338H232.164L308.764 37.4103H320.245L243.864 164.338ZM311.631 165.64C303.419 165.64 297.018 162.387 292.426 155.88C287.834 149.373 285.529 141.561 285.51 132.444C285.51 123.27 287.748 115.505 292.225 109.151C296.701 102.797 303.076 99.6227 311.349 99.6291C319.993 99.6291 326.507 102.977 330.89 109.672C335.273 116.368 337.466 124.116 337.467 132.918C337.467 141.6 335.198 149.226 330.66 155.794C326.122 162.363 319.777 165.645 311.626 165.64H311.631ZM311.768 158.201C317.065 158.201 321.021 155.912 323.637 151.333C326.253 146.755 327.561 140.907 327.561 133.789C327.561 126.171 326.238 119.783 323.59 114.624C320.942 109.464 316.818 106.881 311.216 106.873C300.564 106.873 295.238 115.319 295.238 132.211C295.235 149.539 300.743 158.203 311.764 158.201H311.768Z" fill="#3F3D56"/>
<path d="M240.962 102.131C232.873 102.131 226.497 98.907 221.836 92.459C217.174 86.0111 214.844 78.1999 214.844 69.0255C214.844 59.7892 217.098 51.9939 221.606 45.6396C226.114 39.2853 232.473 36.1113 240.682 36.1177C249.389 36.1177 255.948 39.4654 260.361 46.161C264.774 52.8565 266.982 60.6057 266.983 69.4088C266.983 78.1483 264.699 85.7881 260.131 92.3281C255.563 98.8681 249.174 102.136 240.962 102.131ZM241.199 94.8776C246.521 94.8776 250.499 92.5487 253.132 87.8909C255.766 83.2331 257.082 77.3612 257.082 70.2753C257.082 62.3879 255.735 55.9297 253.04 50.9005C250.345 45.8713 246.212 43.356 240.64 43.3544C230.05 43.3544 224.754 51.8003 224.754 68.6923C224.754 86.1507 230.234 94.8792 241.195 94.8776H241.199ZM243.864 164.338H232.164L308.764 37.4103H320.245L243.864 164.338ZM311.631 165.64C303.419 165.64 297.018 162.387 292.426 155.88C287.834 149.373 285.529 141.561 285.51 132.444C285.51 123.27 287.748 115.505 292.225 109.151C296.701 102.797 303.076 99.6227 311.349 99.6291C319.993 99.6291 326.507 102.977 330.89 109.672C335.273 116.368 337.466 124.116 337.467 132.918C337.467 141.6 335.198 149.226 330.66 155.794C326.122 162.363 319.777 165.645 311.626 165.64H311.631ZM311.768 158.201C317.065 158.201 321.021 155.912 323.637 151.333C326.253 146.755 327.561 140.907 327.561 133.789C327.561 126.171 326.238 119.783 323.59 114.624C320.942 109.464 316.818 106.881 311.216 106.873C300.564 106.873 295.238 115.319 295.238 132.211C295.235 149.539 300.743 158.203 311.764 158.201H311.768Z" fill="#3F3D56"/>
<path opacity="0.15" d="M240.962 102.131C232.873 102.131 226.497 98.907 221.836 92.459C217.174 86.0111 214.844 78.1999 214.844 69.0255C214.844 59.7892 217.098 51.9939 221.606 45.6396C226.114 39.2853 232.473 36.1113 240.682 36.1177C249.389 36.1177 255.948 39.4654 260.361 46.161C264.774 52.8565 266.982 60.6057 266.983 69.4088C266.983 78.1483 264.699 85.7881 260.131 92.3281C255.563 98.8681 249.174 102.136 240.962 102.131ZM241.199 94.8776C246.521 94.8776 250.499 92.5487 253.132 87.8909C255.766 83.2331 257.082 77.3612 257.082 70.2753C257.082 62.3879 255.735 55.9297 253.04 50.9005C250.345 45.8713 246.212 43.356 240.64 43.3544C230.05 43.3544 224.754 51.8003 224.754 68.6923C224.754 86.1507 230.234 94.8792 241.195 94.8776H241.199ZM243.864 164.338H232.164L308.764 37.4103H320.245L243.864 164.338ZM311.631 165.64C303.419 165.64 297.018 162.387 292.426 155.88C287.834 149.373 285.529 141.561 285.51 132.444C285.51 123.27 287.748 115.505 292.225 109.151C296.701 102.797 303.076 99.6227 311.349 99.6291C319.993 99.6291 326.507 102.977 330.89 109.672C335.273 116.368 337.466 124.116 337.467 132.918C337.467 141.6 335.198 149.226 330.66 155.794C326.122 162.363 319.777 165.645 311.626 165.64H311.631ZM311.768 158.201C317.065 158.201 321.021 155.912 323.637 151.333C326.253 146.755 327.561 140.907 327.561 133.789C327.561 126.171 326.238 119.783 323.59 114.624C320.942 109.464 316.818 106.881 311.216 106.873C300.564 106.873 295.238 115.319 295.238 132.211C295.235 149.539 300.743 158.203 311.764 158.201H311.768Z" fill="black"/>
<path d="M233.612 102.131C225.523 102.131 219.147 98.907 214.486 92.459C209.824 86.0111 207.494 78.1999 207.494 69.0255C207.494 59.7892 209.748 51.9939 214.256 45.6396C218.764 39.2853 225.123 36.1113 233.332 36.1177C242.039 36.1177 248.598 39.4654 253.011 46.161C257.425 52.8565 259.632 60.6057 259.633 69.4088C259.633 78.1483 257.349 85.7881 252.781 92.3281C248.213 98.8681 241.824 102.136 233.612 102.131ZM233.849 94.8776C239.171 94.8776 243.149 92.5487 245.782 87.8909C248.416 83.2331 249.732 77.3612 249.732 70.2753C249.732 62.3879 248.385 55.9297 245.69 50.9005C242.995 45.8713 238.862 43.356 233.29 43.3544C222.7 43.3544 217.404 51.8003 217.404 68.6923C217.404 86.1507 222.884 94.8792 233.845 94.8776H233.849ZM236.514 164.338H224.814L301.414 37.4103H312.895L236.514 164.338ZM304.281 165.64C296.069 165.64 289.668 162.387 285.076 155.88C280.484 149.373 278.179 141.561 278.16 132.444C278.16 123.27 280.398 115.505 284.875 109.151C289.351 102.797 295.726 99.6227 303.999 99.6291C312.643 99.6291 319.157 102.977 323.54 109.672C327.923 116.368 330.116 124.116 330.117 132.918C330.117 141.6 327.848 149.226 323.31 155.794C318.772 162.363 312.428 165.645 304.276 165.64H304.281ZM304.418 158.201C309.715 158.201 313.671 155.912 316.287 151.333C318.903 146.755 320.211 140.907 320.211 133.789C320.211 126.171 318.888 119.783 316.24 114.624C313.592 109.464 309.466 106.881 303.861 106.873C293.209 106.873 287.883 115.319 287.883 132.211C287.883 149.539 293.393 158.203 304.414 158.201H304.418Z" fill="#3F3D56"/>
<path d="M259.209 167.523C260.186 165.704 259.076 163.476 257.801 161.853C256.525 160.229 254.97 158.544 255.003 156.475C255.05 153.507 258.19 151.752 260.693 150.176C262.555 149.008 264.273 147.623 265.81 146.049C266.453 145.442 266.986 144.727 267.382 143.935C267.901 142.773 267.884 141.452 267.856 140.181C267.747 135.94 267.538 131.706 267.23 127.478" stroke="#3F3D56" stroke-width="4" stroke-miterlimit="10"/>
<path d="M272 127.245C271.965 126.469 271.735 125.715 271.333 125.052C270.93 124.389 270.368 123.838 269.698 123.451L268.664 125.503L268.695 123.017C268.202 122.873 267.689 122.811 267.175 122.834C266.264 122.877 265.386 123.19 264.651 123.734C263.917 124.278 263.36 125.029 263.051 125.891C262.742 126.753 262.694 127.687 262.913 128.577C263.133 129.466 263.61 130.27 264.285 130.887C264.96 131.503 265.802 131.906 266.704 132.042C267.606 132.179 268.529 132.043 269.354 131.654C270.18 131.264 270.872 130.637 271.343 129.852C271.814 129.068 272.043 128.16 272 127.245V127.245Z" fill="#6C63FF"/>
<path d="M263.773 158.606C263.289 159.55 262.496 160.299 261.528 160.726C260.559 161.153 259.474 161.233 258.453 160.952C257.433 160.671 256.54 160.047 255.924 159.183C255.308 158.32 255.006 157.27 255.07 156.21C255.133 155.149 255.557 154.143 256.272 153.36C256.986 152.576 257.947 152.064 258.994 151.907C260.04 151.751 261.108 151.96 262.019 152.501C262.93 153.041 263.628 153.88 263.996 154.875L261.113 157.23L264.29 156.487C264.289 157.224 264.111 157.951 263.773 158.606V158.606Z" fill="#6C63FF"/>
<path d="M261.495 149.605C260.889 149.633 260.284 149.542 259.714 149.336C259.144 149.129 258.62 148.812 258.172 148.403C257.724 147.993 257.361 147.499 257.103 146.948C256.845 146.398 256.698 145.802 256.67 145.194C256.634 144.468 256.77 143.745 257.068 143.082C257.344 142.464 257.751 141.913 258.261 141.469C258.772 141.025 259.373 140.699 260.022 140.514L259.996 142.418L261.042 140.343C262.264 140.285 263.459 140.718 264.364 141.545C265.269 142.372 265.809 143.526 265.867 144.754C265.924 145.981 265.493 147.181 264.669 148.089C263.845 148.998 262.696 149.54 261.473 149.598L261.495 149.605Z" fill="#6C63FF"/>
<path d="M272.695 142.123C272.083 142.164 271.468 142.082 270.888 141.881C270.307 141.681 269.773 141.366 269.315 140.956C268.857 140.545 268.485 140.047 268.221 139.491C267.957 138.934 267.807 138.331 267.778 137.715C267.749 137.1 267.843 136.484 268.054 135.906C268.265 135.327 268.589 134.796 269.007 134.345C269.424 133.893 269.927 133.53 270.487 133.276C271.046 133.022 271.65 132.882 272.264 132.865C273.126 132.823 273.982 133.027 274.734 133.453L273.918 135.696L275.597 134.079C276.498 134.904 277.036 136.054 277.093 137.276C277.114 137.705 277.074 138.135 276.975 138.552C276.745 139.534 276.203 140.414 275.431 141.058C274.659 141.702 273.698 142.076 272.695 142.123V142.123Z" fill="#6C63FF"/>
<path opacity="0.1" d="M271.379 128.481C270.315 128.597 269.281 128.93 268.212 128.997C267.142 129.064 265.969 128.807 265.293 127.971C264.928 127.524 264.748 126.955 264.439 126.464C264.148 126.008 263.749 125.631 263.278 125.367C262.981 125.954 262.813 126.598 262.784 127.255C262.755 127.913 262.866 128.569 263.11 129.18C263.353 129.791 263.724 130.343 264.196 130.799C264.669 131.256 265.233 131.605 265.851 131.825C266.469 132.046 267.126 132.131 267.779 132.076C268.432 132.021 269.067 131.827 269.639 131.507C270.212 131.186 270.71 130.747 271.1 130.218C271.491 129.69 271.764 129.083 271.903 128.44C271.728 128.45 271.555 128.462 271.379 128.481Z" fill="black"/>
<path opacity="0.1" d="M272.695 142.123C271.9 142.159 271.109 141.989 270.399 141.628C269.689 141.267 269.084 140.728 268.642 140.063C268.201 139.398 267.938 138.63 267.879 137.833C267.82 137.036 267.967 136.238 268.306 135.515C268.672 135.764 268.987 136.08 269.233 136.448C269.563 136.946 269.762 137.522 270.149 137.979C270.86 138.828 272.095 139.105 273.207 139.055C274.319 139.005 275.396 138.686 276.505 138.579C276.659 138.564 276.816 138.555 276.979 138.55C276.75 139.533 276.208 140.413 275.434 141.058C274.661 141.703 273.699 142.077 272.695 142.123V142.123Z" fill="black"/>
<path opacity="0.1" d="M261.495 149.605C260.889 149.633 260.284 149.542 259.714 149.336C259.144 149.129 258.62 148.812 258.172 148.403C257.724 147.993 257.361 147.499 257.103 146.948C256.845 146.398 256.698 145.802 256.67 145.194C256.634 144.468 256.77 143.745 257.068 143.082C257.449 143.337 257.779 143.66 258.043 144.035C258.401 144.542 258.626 145.127 259.045 145.596C259.823 146.465 261.132 146.772 262.31 146.744C263.489 146.715 264.553 146.439 265.689 146.351C265.407 147.26 264.854 148.06 264.103 148.643C263.353 149.225 262.442 149.561 261.495 149.605V149.605Z" fill="black"/>
<path opacity="0.1" d="M263.773 158.606C263.236 159.665 262.314 160.477 261.198 160.873C260.082 161.269 258.857 161.219 257.776 160.733C256.696 160.247 255.842 159.363 255.393 158.264C254.943 157.164 254.932 155.933 255.361 154.825C255.741 155.076 256.082 155.382 256.373 155.732C256.812 156.27 257.101 156.88 257.609 157.38C258.557 158.308 260.074 158.691 261.431 158.727C262.213 158.733 262.995 158.693 263.773 158.606V158.606Z" fill="black"/>
<path d="M330.575 167.285C331.552 165.466 330.442 163.238 329.166 161.615C327.891 159.991 326.336 158.306 326.369 156.237C326.416 153.269 329.555 151.514 332.059 149.938C333.921 148.77 335.639 147.385 337.176 145.81C337.819 145.204 338.351 144.488 338.747 143.697C339.267 142.535 339.25 141.214 339.222 139.943C339.113 135.702 338.904 131.468 338.596 127.24" stroke="#3F3D56" stroke-width="4" stroke-miterlimit="10"/>
<path d="M343.366 127.007C343.33 126.231 343.101 125.477 342.698 124.814C342.296 124.151 341.734 123.6 341.064 123.213L340.03 125.264L340.061 122.779C339.568 122.635 339.054 122.573 338.541 122.596C337.63 122.639 336.751 122.952 336.017 123.496C335.283 124.04 334.726 124.791 334.417 125.653C334.107 126.515 334.059 127.449 334.279 128.339C334.499 129.228 334.976 130.032 335.651 130.649C336.326 131.265 337.167 131.667 338.07 131.804C338.972 131.941 339.894 131.805 340.72 131.416C341.546 131.026 342.238 130.399 342.709 129.614C343.18 128.83 343.409 127.922 343.366 127.007V127.007Z" fill="#6C63FF"/>
<path d="M335.139 158.368C334.655 159.312 333.862 160.061 332.893 160.488C331.925 160.915 330.839 160.995 329.819 160.714C328.799 160.433 327.906 159.809 327.29 158.945C326.674 158.082 326.372 157.032 326.435 155.972C326.499 154.911 326.923 153.905 327.638 153.122C328.352 152.338 329.313 151.826 330.36 151.669C331.406 151.513 332.474 151.722 333.385 152.263C334.296 152.803 334.994 153.642 335.362 154.637L332.479 156.992L335.656 156.249C335.654 156.986 335.477 157.713 335.139 158.368V158.368Z" fill="#6C63FF"/>
<path d="M332.86 149.367C332.255 149.395 331.65 149.304 331.08 149.098C330.51 148.891 329.986 148.574 329.538 148.165C329.09 147.755 328.727 147.261 328.469 146.71C328.211 146.16 328.064 145.564 328.035 144.956C328 144.23 328.136 143.507 328.434 142.844C328.709 142.226 329.117 141.675 329.627 141.231C330.138 140.787 330.739 140.461 331.388 140.276L331.362 142.18L332.408 140.104H332.419C333.025 140.076 333.63 140.168 334.2 140.374C334.77 140.58 335.294 140.897 335.742 141.307C336.19 141.716 336.553 142.21 336.811 142.761C337.069 143.312 337.216 143.908 337.244 144.515C337.273 145.123 337.181 145.731 336.976 146.303C336.771 146.875 336.455 147.401 336.047 147.851C335.639 148.301 335.147 148.666 334.598 148.925C334.05 149.183 333.456 149.331 332.851 149.36L332.86 149.367Z" fill="#6C63FF"/>
<path d="M344.061 141.885C343.448 141.926 342.834 141.844 342.253 141.643C341.673 141.443 341.138 141.128 340.68 140.718C340.223 140.307 339.851 139.809 339.587 139.253C339.323 138.696 339.172 138.093 339.144 137.477C339.115 136.862 339.209 136.246 339.42 135.668C339.631 135.089 339.955 134.558 340.372 134.107C340.79 133.655 341.293 133.292 341.852 133.038C342.412 132.784 343.016 132.644 343.629 132.627C344.492 132.585 345.348 132.789 346.1 133.215L345.284 135.458L346.963 133.841C347.864 134.666 348.402 135.816 348.459 137.038C348.48 137.467 348.44 137.897 348.34 138.314C348.111 139.296 347.569 140.175 346.797 140.82C346.024 141.464 345.064 141.838 344.061 141.885V141.885Z" fill="#6C63FF"/>
<path opacity="0.1" d="M342.745 128.242C341.68 128.359 340.647 128.692 339.577 128.759C338.508 128.826 337.334 128.569 336.659 127.733C336.294 127.286 336.113 126.717 335.805 126.226C335.514 125.77 335.115 125.393 334.643 125.129C334.347 125.716 334.179 126.36 334.15 127.017C334.121 127.675 334.232 128.331 334.476 128.942C334.719 129.553 335.089 130.105 335.562 130.561C336.035 131.018 336.599 131.367 337.216 131.587C337.834 131.808 338.492 131.893 339.145 131.838C339.798 131.783 340.432 131.589 341.005 131.269C341.578 130.948 342.076 130.509 342.466 129.98C342.856 129.452 343.13 128.845 343.269 128.202C343.093 128.212 342.92 128.223 342.745 128.242Z" fill="black"/>
<path opacity="0.1" d="M344.061 141.885C343.266 141.921 342.475 141.751 341.765 141.39C341.055 141.029 340.449 140.49 340.008 139.825C339.566 139.16 339.303 138.392 339.245 137.595C339.186 136.798 339.333 136 339.672 135.277C340.038 135.526 340.352 135.842 340.599 136.21C340.929 136.707 341.128 137.284 341.514 137.741C342.226 138.59 343.461 138.867 344.573 138.817C345.685 138.767 346.761 138.448 347.871 138.341C348.025 138.326 348.181 138.317 348.345 138.312C348.116 139.295 347.573 140.175 346.8 140.82C346.027 141.465 345.065 141.839 344.061 141.885V141.885Z" fill="black"/>
<path opacity="0.1" d="M332.86 149.367C332.255 149.395 331.65 149.304 331.08 149.098C330.51 148.891 329.986 148.574 329.538 148.165C329.09 147.755 328.727 147.261 328.469 146.71C328.211 146.16 328.064 145.564 328.035 144.956C328 144.23 328.136 143.507 328.434 142.844C328.814 143.099 329.145 143.422 329.408 143.797C329.766 144.304 329.992 144.889 330.411 145.358C331.189 146.227 332.498 146.534 333.676 146.506C334.819 146.482 335.919 146.201 337.055 146.113C336.773 147.022 336.219 147.822 335.469 148.405C334.719 148.987 333.808 149.323 332.86 149.367V149.367Z" fill="black"/>
<path opacity="0.1" d="M335.139 158.368C334.602 159.427 333.68 160.239 332.564 160.635C331.448 161.031 330.222 160.981 329.142 160.495C328.061 160.009 327.208 159.125 326.758 158.026C326.309 156.926 326.298 155.695 326.727 154.587C327.107 154.838 327.448 155.144 327.739 155.494C328.178 156.032 328.467 156.642 328.974 157.142C329.923 158.07 331.44 158.453 332.796 158.489C333.579 158.495 334.361 158.455 335.139 158.368V158.368Z" fill="black"/>
<path d="M105.064 164.19C104.087 162.372 105.197 160.143 106.472 158.52C107.748 156.896 109.303 155.211 109.27 153.142C109.223 150.174 106.083 148.42 103.58 146.844C101.718 145.676 100 144.29 98.4632 142.716C97.8195 142.109 97.2874 141.394 96.8912 140.602C96.372 139.44 96.3886 138.119 96.417 136.848C96.5261 132.608 96.7347 128.373 97.043 124.146" stroke="#3F3D56" stroke-width="4" stroke-miterlimit="10"/>
<path d="M92.2726 123.912C92.3083 123.137 92.5379 122.383 92.9402 121.719C93.3425 121.056 93.9047 120.506 94.5748 120.118L95.6085 122.17L95.5777 119.685C96.0708 119.54 96.5843 119.478 97.0975 119.501C98.009 119.544 98.8874 119.858 99.6215 120.402C100.356 120.946 100.913 121.696 101.222 122.558C101.531 123.42 101.579 124.355 101.36 125.244C101.14 126.133 100.663 126.937 99.9878 127.554C99.3131 128.171 98.4714 128.573 97.5691 128.709C96.6667 128.846 95.7444 128.711 94.9186 128.321C94.0927 127.931 93.4006 127.304 92.9296 126.52C92.4586 125.735 92.23 124.828 92.2726 123.912V123.912Z" fill="#6C63FF"/>
<path d="M100.5 155.273C100.984 156.217 101.777 156.966 102.745 157.393C103.714 157.82 104.799 157.9 105.82 157.619C106.84 157.339 107.733 156.714 108.349 155.851C108.965 154.987 109.267 153.937 109.203 152.877C109.14 151.817 108.716 150.81 108.001 150.027C107.287 149.244 106.326 148.731 105.279 148.575C104.233 148.418 103.165 148.628 102.254 149.168C101.343 149.709 100.645 150.547 100.277 151.543L103.16 153.897L99.9829 153.154C99.9843 153.892 100.161 154.618 100.5 155.273V155.273Z" fill="#6C63FF"/>
<path d="M102.778 146.272C103.384 146.301 103.989 146.209 104.559 146.003C105.129 145.797 105.653 145.48 106.101 145.07C106.549 144.661 106.912 144.166 107.17 143.616C107.428 143.065 107.575 142.469 107.603 141.861C107.639 141.136 107.503 140.412 107.205 139.75C106.929 139.131 106.522 138.58 106.012 138.137C105.501 137.693 104.9 137.367 104.251 137.181L104.277 139.086L103.231 137.01C102.009 136.952 100.814 137.385 99.9088 138.212C99.004 139.039 98.4635 140.194 98.4063 141.421C98.349 142.648 98.7798 143.848 99.6037 144.757C100.428 145.665 101.577 146.208 102.8 146.265L102.778 146.272Z" fill="#6C63FF"/>
<path d="M91.5779 138.79C92.1904 138.831 92.8048 138.749 93.3852 138.549C93.9656 138.348 94.5004 138.034 94.9583 137.623C95.4161 137.213 95.7879 136.715 96.0517 136.158C96.3156 135.602 96.4663 134.998 96.495 134.382C96.5237 133.767 96.4298 133.152 96.2189 132.573C96.0079 131.994 95.6841 131.464 95.2664 131.012C94.8488 130.56 94.3456 130.197 93.7863 129.943C93.2271 129.689 92.623 129.549 92.0094 129.533C91.1511 129.493 90.299 129.697 89.5507 130.121L90.3663 132.363L88.6759 130.754C87.7766 131.577 87.2387 132.724 87.1798 133.944C87.1588 134.373 87.1987 134.802 87.2983 135.22C87.5278 136.201 88.0697 137.081 88.842 137.725C89.6143 138.37 90.5748 138.744 91.5779 138.79Z" fill="#6C63FF"/>
<path opacity="0.1" d="M92.8938 125.148C93.9584 125.265 94.9921 125.598 96.0614 125.664C97.1307 125.731 98.3043 125.474 98.98 124.638C99.3452 124.191 99.5254 123.622 99.8336 123.132C100.125 122.675 100.524 122.298 100.995 122.034C101.292 122.621 101.46 123.265 101.489 123.923C101.517 124.58 101.407 125.236 101.163 125.848C100.92 126.459 100.549 127.011 100.077 127.467C99.604 127.923 99.04 128.273 98.4222 128.493C97.8044 128.713 97.147 128.798 96.4937 128.743C95.8405 128.688 95.2064 128.494 94.6337 128.174C94.0611 127.854 93.5629 127.414 93.1726 126.886C92.7822 126.357 92.5085 125.751 92.3698 125.107C92.5453 125.117 92.7183 125.129 92.8938 125.148Z" fill="black"/>
<path opacity="0.1" d="M91.5779 138.79C92.373 138.827 93.164 138.656 93.8741 138.295C94.5842 137.934 95.1893 137.395 95.6309 136.731C96.0724 136.066 96.3354 135.298 96.3942 134.501C96.453 133.704 96.3057 132.905 95.9666 132.182C95.601 132.431 95.2863 132.748 95.0395 133.115C94.71 133.613 94.5108 134.189 94.1243 134.646C93.413 135.496 92.1778 135.772 91.0658 135.722C89.9538 135.672 88.8774 135.353 87.7678 135.246C87.6137 135.232 87.4572 135.222 87.2936 135.217C87.5228 136.2 88.0653 137.081 88.8386 137.726C89.6119 138.371 90.5737 138.744 91.5779 138.79V138.79Z" fill="black"/>
<path opacity="0.1" d="M102.778 146.272C103.384 146.301 103.989 146.209 104.559 146.003C105.129 145.797 105.653 145.48 106.101 145.07C106.549 144.661 106.912 144.166 107.17 143.616C107.428 143.065 107.575 142.469 107.603 141.861C107.639 141.136 107.503 140.412 107.205 139.75C106.824 140.004 106.494 140.327 106.23 140.702C105.872 141.209 105.647 141.795 105.227 142.264C104.45 143.132 103.141 143.44 101.963 143.411C100.82 143.387 99.7198 143.106 98.5841 143.018C98.8656 143.927 99.4192 144.728 100.17 145.31C100.92 145.892 101.831 146.228 102.778 146.272V146.272Z" fill="black"/>
<path opacity="0.1" d="M100.5 155.273C101.037 156.332 101.959 157.144 103.075 157.54C104.191 157.936 105.416 157.886 106.497 157.4C107.577 156.915 108.431 156.031 108.88 154.931C109.33 153.832 109.341 152.6 108.912 151.493C108.532 151.744 108.191 152.049 107.9 152.4C107.461 152.938 107.172 153.547 106.664 154.047C105.716 154.975 104.199 155.359 102.842 155.394C102.06 155.401 101.278 155.36 100.5 155.273V155.273Z" fill="black"/>
<path d="M238.684 141.883C238.688 141.306 238.558 140.735 238.304 140.218C238.049 139.7 237.677 139.25 237.218 138.902C237.162 136.719 235.611 134.936 233.617 134.66C233.463 133.919 233.117 133.231 232.614 132.666C232.112 132.101 231.47 131.679 230.753 131.442V131.442C230.578 131.386 230.4 131.344 230.219 131.316H230.167L230.075 131.304H229.997H229.918H229.816H229.755H229.586C227.552 131.304 225.859 132.865 225.511 134.925C224.195 134.62 222.988 135.015 222.772 135.851C222.717 136.072 222.729 136.305 222.808 136.519C223.031 137.167 223.756 137.786 224.74 138.093L224.868 138.131C224.932 138.15 224.996 138.164 225.06 138.179H225.103C224.741 138.953 224.69 139.837 224.959 140.649C225.229 141.46 225.799 142.136 226.552 142.537C226.522 142.554 226.493 142.572 226.466 142.592C226.345 142.704 226.248 142.84 226.182 142.992C225.944 143.411 225.759 143.858 225.632 144.323C225.537 144.72 225.52 145.137 225.395 145.53C225.179 146.244 224.624 146.87 224.56 147.629C224.532 147.967 224.586 148.365 224.347 148.596C224.287 148.647 224.224 148.694 224.157 148.736C223.989 148.851 223.847 149.001 223.74 149.174C223.67 149.318 223.576 149.448 223.462 149.56C223.246 149.724 222.891 149.707 222.784 149.96C222.677 150.212 222.952 150.51 222.888 150.786C222.836 151.009 222.592 151.112 222.414 151.262C222.215 151.478 222.076 151.743 222.011 152.031C221.657 152.099 221.292 152.089 220.943 151.999C220.593 151.91 220.267 151.744 219.989 151.514C220.084 151.759 220.154 152.014 220.197 152.274C219.915 151.971 219.451 151.883 219.107 151.726C218.663 151.522 218.268 151.227 217.945 150.86L218.566 150.774L215.816 146.584L215.005 146.418L215.733 147.82C215.673 147.848 215.621 147.89 215.58 147.942C215.539 147.994 215.51 148.055 215.496 148.12C215.457 148.275 215.447 148.437 215.467 148.596C215.506 148.971 215.568 149.344 215.655 149.712L215.866 150.698C215.884 150.79 215.907 150.881 215.934 150.971C215.659 150.961 215.385 150.993 215.119 151.064C214.574 150.862 214.006 150.727 213.428 150.662C213.301 150.64 213.171 150.646 213.047 150.681C212.906 150.746 212.783 150.846 212.691 150.971C212.217 151.522 211.796 152.116 211.434 152.747C209.957 155.328 207.985 157.58 206.138 159.912C204.862 160.434 203.577 160.929 202.29 161.419L199.523 162.479C198.97 162.691 198.396 162.907 197.808 162.869C197.543 162.852 197.22 162.812 197.071 163.038C196.998 163.15 196.942 163.272 196.903 163.4C196.806 163.4 196.708 163.424 196.618 163.428H196.602C196.426 162.99 196.274 162.521 195.938 162.203C195.87 162.213 195.806 162.24 195.751 162.282C195.697 162.323 195.653 162.378 195.625 162.441C195.558 162.564 195.518 162.7 195.442 162.814C195.293 163.033 195.034 163.14 194.85 163.326C194.665 163.512 194.548 163.802 194.349 163.983C194.07 164.187 193.744 164.314 193.401 164.352C192.888 164.473 192.393 164.662 191.929 164.914C191.757 165.02 191.574 165.104 191.383 165.166C191.173 165.207 190.958 165.214 190.745 165.188L189.28 165.081C189.15 165.063 189.017 165.069 188.889 165.097C188.738 165.153 188.61 165.257 188.524 165.393C188.438 165.53 188.4 165.691 188.415 165.852C188.433 166.011 188.483 166.165 188.562 166.305C188.642 166.444 188.749 166.565 188.877 166.661C189.131 166.848 189.413 166.995 189.712 167.097C190.985 167.592 192.298 167.978 193.636 168.251V168.549C194.563 169.018 195.587 169.262 196.625 169.263C196.702 169.269 196.779 169.255 196.848 169.223C196.944 169.15 197.011 169.045 197.036 168.927C197.346 167.994 197.543 167.026 197.621 166.045C197.804 166.033 197.984 165.987 198.15 165.909C198.655 165.771 199.155 166.118 199.674 166.176C200.315 166.245 200.91 165.871 201.514 165.64C201.602 165.607 201.69 165.578 201.777 165.549C201.605 165.773 201.401 165.972 201.173 166.137C200.922 166.318 200.639 166.452 200.393 166.64C200.188 166.828 199.968 166.999 199.736 167.152C199.572 167.228 199.404 167.293 199.231 167.347C198.981 167.438 198.742 167.559 198.52 167.706C198.321 167.824 198.152 167.987 198.027 168.182C197.964 168.273 197.925 168.379 197.914 168.49C197.903 168.6 197.921 168.711 197.965 168.813C198.009 168.915 198.079 169.003 198.167 169.07C198.255 169.137 198.358 169.181 198.468 169.196C198.666 169.232 198.868 169.237 199.067 169.213C199.859 169.154 200.649 169.08 201.438 169.008C201.773 168.986 202.105 168.938 202.432 168.865C202.605 168.823 202.776 168.766 202.949 168.72C203.244 168.642 203.547 168.597 203.852 168.585C203.941 168.578 204.03 168.586 204.115 168.611C204.3 168.67 204.431 168.849 204.618 168.896C204.739 168.908 204.862 168.891 204.976 168.846C205.554 168.72 206.144 168.657 206.735 168.658C206.994 168.644 207.297 168.594 207.418 168.354C207.565 168.056 207.318 167.723 207.221 167.401C207.172 167.197 207.145 166.988 207.141 166.778C207.095 166.259 206.947 165.755 206.704 165.295C206.575 165.08 206.467 164.854 206.379 164.619C207.512 164.186 208.597 163.634 209.613 162.971C210.197 162.607 210.799 162.214 211.458 162.081C212.226 161.926 213.018 162.131 213.774 162.35C215.576 162.873 217.348 163.494 219.083 164.209C219.913 164.55 220.743 164.911 221.592 165.161C221.84 165.498 222.14 165.792 222.481 166.033C223.05 166.402 223.744 166.509 224.413 166.561C225.316 166.644 226.223 166.678 227.13 166.664C227.822 166.652 228.536 166.604 229.155 166.287C229.306 166.21 229.448 166.115 229.579 166.007C230.053 166.092 230.539 165.838 230.912 165.511C231.404 165.091 231.76 164.531 231.931 163.905C232.149 163.045 231.981 162.043 232.507 161.341C232.647 161.153 232.83 161 232.967 160.81C233.137 160.555 233.22 160.252 233.204 159.946L233.228 159.91C233.347 159.634 233.427 159.342 233.465 159.044C233.528 158.81 233.607 158.582 233.702 158.36C233.97 157.696 234.202 157.018 234.399 156.33C234.536 155.873 234.644 155.408 234.722 154.937C234.779 154.561 234.812 154.183 234.843 153.804C234.881 153.212 234.996 152.627 235.184 152.064C235.652 150.721 235.917 149.315 235.969 147.893C235.969 147.865 235.969 147.839 235.969 147.81C236.657 147.734 237.293 147.403 237.751 146.882C238.209 146.361 238.457 145.687 238.447 144.992C238.447 144.573 238.36 144.158 238.191 143.775C238.518 143.199 238.688 142.546 238.684 141.883V141.883ZM225.276 158.239C225.316 158.384 225.364 158.529 225.411 158.675C225.193 158.458 224.977 158.234 224.757 158.02C224.844 158.046 224.932 158.075 225.018 158.106C225.108 158.142 225.196 158.186 225.278 158.239H225.276ZM224.214 157.525C222.919 156.397 221.421 155.52 220.095 154.43C220.807 154.79 221.518 155.206 222.229 155.606C223.058 156.082 223.895 156.538 224.743 156.973C224.604 157.184 224.427 157.368 224.221 157.515L224.214 157.525ZM224.766 154.683L224.828 154.618C224.828 154.778 224.828 154.928 224.828 155.063C224.712 155.025 224.591 154.987 224.479 154.944C224.582 154.861 224.678 154.77 224.769 154.673L224.766 154.683ZM213.369 157.739C213.902 157.134 214.366 156.47 214.751 155.761C215.263 156.663 216.098 157.313 216.809 158.068C215.667 157.906 214.521 157.78 213.371 157.73L213.369 157.739Z" fill="url(#paint0_linear_13_959)"/>
<path d="M215.218 146.765L216.036 146.932L218.822 151.064L217.592 151.231L215.218 146.765Z" fill="#2F2E41"/>
<path d="M195.409 163.538C195.63 164.27 195.901 164.986 196.222 165.68C197.145 165.487 198.053 165.226 198.939 164.902C198.768 164.634 198.579 164.377 198.375 164.133C198.157 163.89 197.897 163.689 197.607 163.54C197.325 163.417 196.976 163.509 196.675 163.526C196.253 163.542 195.831 163.546 195.409 163.538Z" fill="#FBBEBE"/>
<path d="M197.612 164.643C197.152 164.497 196.87 164.031 196.682 163.581C196.495 163.131 196.343 162.641 195.988 162.31C195.92 162.32 195.856 162.348 195.801 162.389C195.747 162.431 195.703 162.485 195.675 162.548C195.606 162.667 195.566 162.802 195.487 162.917C195.34 163.131 195.08 163.236 194.892 163.419C194.705 163.602 194.589 163.881 194.387 164.064C194.108 164.266 193.781 164.392 193.439 164.431C192.922 164.548 192.423 164.734 191.955 164.983C191.781 165.084 191.597 165.164 191.405 165.221C191.193 165.261 190.976 165.269 190.762 165.242L189.285 165.135C189.154 165.119 189.02 165.125 188.891 165.154C188.741 165.207 188.612 165.309 188.526 165.443C188.44 165.578 188.402 165.738 188.417 165.897C188.437 166.056 188.489 166.209 188.571 166.346C188.652 166.483 188.761 166.602 188.891 166.694C189.148 166.879 189.431 167.023 189.731 167.123C191.018 167.609 192.342 167.989 193.69 168.258V168.551C194.627 169.017 195.658 169.261 196.704 169.265C196.785 169.273 196.866 169.259 196.941 169.225C197.037 169.154 197.104 169.051 197.13 168.935C197.485 167.894 197.692 166.809 197.744 165.711C197.772 165.434 197.751 165.153 197.683 164.883C197.602 164.616 197.877 164.728 197.621 164.623" fill="#2F2E41"/>
<path d="M225.93 159.053C221.551 159.32 217.227 158.03 212.84 157.891C212.296 157.858 211.75 157.893 211.214 157.996C210.655 158.147 210.115 158.357 209.602 158.625C207.252 159.722 204.819 160.631 202.389 161.541L199.601 162.583C199.041 162.79 198.465 163.002 197.87 162.967C197.605 162.95 197.28 162.91 197.128 163.133C196.675 163.807 196.891 164.8 197.19 165.557C197.287 165.795 197.45 166.068 197.711 166.097C197.896 166.084 198.076 166.038 198.245 165.961C198.752 165.826 199.26 166.168 199.781 166.223C200.428 166.292 201.028 165.923 201.638 165.697C202.648 165.323 203.752 165.335 204.815 165.157C206.598 164.859 208.248 164.028 209.794 163.081C210.382 162.721 210.979 162.336 211.652 162.205C212.428 162.053 213.227 162.252 213.988 162.469C215.802 162.985 217.589 163.596 219.339 164.3C220.25 164.697 221.185 165.039 222.137 165.323C224.212 165.872 226.408 165.744 228.406 164.957C229.117 164.678 229.866 164.188 229.906 163.428C229.93 162.995 229.596 162.614 229.373 162.238C229.228 162 229.086 161.762 228.93 161.536C228.176 160.431 227.26 158.972 225.93 159.053Z" fill="#2F2E41"/>
<path opacity="0.1" d="M225.93 159.053C221.551 159.32 217.227 158.03 212.84 157.891C212.296 157.858 211.75 157.893 211.214 157.996C210.655 158.147 210.115 158.357 209.602 158.625C207.252 159.722 204.819 160.631 202.389 161.541L199.601 162.583C199.041 162.79 198.465 163.002 197.87 162.967C197.605 162.95 197.28 162.91 197.128 163.133C196.675 163.807 196.891 164.8 197.19 165.557C197.287 165.795 197.45 166.068 197.711 166.097C197.896 166.084 198.076 166.038 198.245 165.961C198.752 165.826 199.26 166.168 199.781 166.223C200.428 166.292 201.028 165.923 201.638 165.697C202.648 165.323 203.752 165.335 204.815 165.157C206.598 164.859 208.248 164.028 209.794 163.081C210.382 162.721 210.979 162.336 211.652 162.205C212.428 162.053 213.227 162.252 213.988 162.469C215.802 162.985 217.589 163.596 219.339 164.3C220.25 164.697 221.185 165.039 222.137 165.323C224.212 165.872 226.408 165.744 228.406 164.957C229.117 164.678 229.866 164.188 229.906 163.428C229.93 162.995 229.596 162.614 229.373 162.238C229.228 162 229.086 161.762 228.93 161.536C228.176 160.431 227.26 158.972 225.93 159.053Z" fill="black"/>
<path d="M203.814 163.752C204.5 163.985 205.191 164.201 205.886 164.4C206.278 163.755 207.008 163.307 207.174 162.571C207.183 162.54 207.183 162.506 207.174 162.474C207.156 162.443 207.128 162.418 207.096 162.402C206.596 162.126 206.041 161.963 205.471 161.926C205.021 161.898 204.817 162.369 204.613 162.7C204.542 162.833 203.997 163.814 203.814 163.752Z" fill="#FBBEBE"/>
<path d="M204.779 163.281C204.574 163.247 204.379 163.17 204.205 163.056C204.032 162.941 203.884 162.792 203.771 162.617C203.674 162.448 203.572 162.219 203.378 162.231C203.183 162.243 203.117 162.457 203.077 162.636C202.945 163.303 202.756 163.957 202.51 164.59C202.262 165.225 201.843 165.779 201.299 166.187C201.045 166.364 200.763 166.497 200.514 166.683C200.306 166.868 200.084 167.037 199.85 167.187C199.685 167.263 199.514 167.327 199.34 167.378C199.085 167.467 198.84 167.586 198.612 167.732C198.412 167.85 198.243 168.013 198.117 168.208C198.056 168.308 198.02 168.42 198.013 168.536C198.006 168.653 198.026 168.769 198.074 168.875C198.125 168.961 198.194 169.036 198.275 169.094C198.357 169.151 198.45 169.191 198.548 169.211C198.748 169.244 198.952 169.249 199.153 169.225C199.952 169.165 200.748 169.094 201.545 169.023C201.882 169.002 202.218 168.956 202.548 168.885C202.723 168.842 202.894 168.785 203.067 168.739C203.366 168.663 203.672 168.618 203.98 168.606C204.069 168.599 204.159 168.608 204.246 168.632C204.431 168.692 204.561 168.87 204.751 168.913C204.873 168.926 204.996 168.91 205.111 168.865C205.694 168.742 206.289 168.679 206.884 168.68C207.145 168.666 207.454 168.616 207.572 168.38C207.721 168.087 207.475 167.759 207.375 167.444C207.326 167.243 207.298 167.037 207.292 166.83C207.247 166.319 207.098 165.822 206.854 165.371C206.65 164.995 206.379 164.581 206.515 164.181C206.587 164.056 206.633 163.917 206.65 163.774C206.617 163.129 205.139 163.367 204.779 163.281Z" fill="#2F2E41"/>
<path d="M219.365 152.002C218.589 151.658 217.968 151.039 217.62 150.262C217.549 150.095 217.487 149.922 217.419 149.753C217.188 149.194 216.831 148.697 216.375 148.3C216.327 148.247 216.267 148.204 216.2 148.176C216.133 148.147 216.061 148.134 215.989 148.136C215.919 148.157 215.856 148.196 215.806 148.25C215.756 148.303 215.721 148.369 215.704 148.441C215.664 148.596 215.653 148.758 215.674 148.917C215.714 149.286 215.777 149.653 215.863 150.014L216.077 150.986C216.104 151.135 216.148 151.28 216.209 151.419C216.301 151.582 216.421 151.726 216.565 151.845C216.76 152.026 216.956 152.2 217.155 152.369C217.265 152.468 217.385 152.556 217.513 152.631C217.724 152.731 217.949 152.797 218.18 152.826C219.05 152.988 219.934 153.221 220.667 153.778C220.667 153.778 220.667 153.128 220.65 153.064C220.641 152.875 220.577 152.694 220.465 152.543C220.19 152.245 219.716 152.157 219.365 152.002Z" fill="#FBBEBE"/>
<path opacity="0.1" d="M219.365 152.002C218.589 151.658 217.968 151.039 217.62 150.262C217.549 150.095 217.487 149.922 217.419 149.753C217.188 149.194 216.831 148.697 216.375 148.3C216.327 148.247 216.267 148.204 216.2 148.176C216.133 148.147 216.061 148.134 215.989 148.136C215.919 148.157 215.856 148.196 215.806 148.25C215.756 148.303 215.721 148.369 215.704 148.441C215.664 148.596 215.653 148.758 215.674 148.917C215.714 149.286 215.777 149.653 215.863 150.014L216.077 150.986C216.104 151.135 216.148 151.28 216.209 151.419C216.301 151.582 216.421 151.726 216.565 151.845C216.76 152.026 216.956 152.2 217.155 152.369C217.265 152.468 217.385 152.556 217.513 152.631C217.724 152.731 217.949 152.797 218.18 152.826C219.05 152.988 219.934 153.221 220.667 153.778C220.667 153.778 220.667 153.128 220.65 153.064C220.641 152.875 220.577 152.694 220.465 152.543C220.19 152.245 219.716 152.157 219.365 152.002Z" fill="black"/>
<path d="M228.28 144.575C228.868 144.575 229.345 144.093 229.345 143.499C229.345 142.905 228.868 142.423 228.28 142.423C227.692 142.423 227.215 142.905 227.215 143.499C227.215 144.093 227.692 144.575 228.28 144.575Z" fill="#2F2E41"/>
<path d="M227.621 142.849C227.335 142.784 227.035 142.827 226.779 142.971C226.656 143.08 226.558 143.215 226.492 143.366C226.253 143.777 226.066 144.217 225.937 144.675C225.843 145.068 225.826 145.477 225.7 145.865C225.482 146.579 224.923 147.186 224.859 147.932C224.83 148.265 224.885 148.658 224.643 148.884C224.583 148.934 224.519 148.98 224.451 149.019C224.282 149.133 224.14 149.28 224.031 149.453C223.959 149.607 223.858 149.747 223.735 149.864C223.517 150.026 223.159 150.01 223.052 150.26C222.945 150.51 223.22 150.8 223.156 151.071C223.104 151.293 222.858 151.395 222.682 151.547C222.482 151.76 222.342 152.022 222.277 152.307C221.921 152.374 221.554 152.363 221.203 152.275C220.851 152.187 220.523 152.023 220.24 151.795C220.536 152.531 220.544 153.342 220.555 154.135C220.59 154.389 220.522 154.645 220.368 154.849C221.217 154.868 222.042 155.087 222.869 155.285C223.223 155.404 223.606 155.404 223.96 155.285C224.149 155.183 224.319 155.047 224.46 154.885C224.911 154.425 225.383 153.933 225.492 153.292C225.521 152.932 225.527 152.57 225.511 152.209C225.554 151.763 225.646 151.324 225.783 150.898C226.021 150.013 226.18 149.109 226.258 148.196C226.307 147.632 226.791 147.179 227.047 146.675C227.521 145.722 228.019 144.735 228.057 143.668C228.09 143.321 227.972 142.894 227.621 142.849Z" fill="#2F2E41"/>
<path opacity="0.1" d="M227.621 142.849C227.335 142.784 227.035 142.827 226.779 142.971C226.656 143.08 226.558 143.215 226.492 143.366C226.253 143.777 226.066 144.217 225.937 144.675C225.843 145.068 225.826 145.477 225.7 145.865C225.482 146.579 224.923 147.186 224.859 147.932C224.83 148.265 224.885 148.658 224.643 148.884C224.583 148.934 224.519 148.98 224.451 149.019C224.282 149.133 224.14 149.28 224.031 149.453C223.959 149.607 223.858 149.747 223.735 149.864C223.517 150.026 223.159 150.01 223.052 150.26C222.945 150.51 223.22 150.8 223.156 151.071C223.104 151.293 222.858 151.395 222.682 151.547C222.482 151.76 222.342 152.022 222.277 152.307C221.921 152.374 221.554 152.363 221.203 152.275C220.851 152.187 220.523 152.023 220.24 151.795C220.536 152.531 220.544 153.342 220.555 154.135C220.59 154.389 220.522 154.645 220.368 154.849C221.217 154.868 222.042 155.087 222.869 155.285C223.223 155.404 223.606 155.404 223.96 155.285C224.149 155.183 224.319 155.047 224.46 154.885C224.911 154.425 225.383 153.933 225.492 153.292C225.521 152.932 225.527 152.57 225.511 152.209C225.554 151.763 225.646 151.324 225.783 150.898C226.021 150.013 226.18 149.109 226.258 148.196C226.307 147.632 226.791 147.179 227.047 146.675C227.521 145.722 228.019 144.735 228.057 143.668C228.09 143.321 227.972 142.894 227.621 142.849Z" fill="black"/>
<path d="M226.625 159.979C225.712 159.544 225.046 158.732 224.309 158.037C222.9 156.708 221.179 155.77 219.7 154.525C218.72 153.702 217.843 152.742 216.764 152.052C215.815 151.444 214.739 151.066 213.62 150.945C213.493 150.923 213.361 150.929 213.236 150.964C213.095 151.028 212.972 151.126 212.878 151.25C212.4 151.791 211.975 152.377 211.61 153C209.734 156.194 207.072 158.882 204.864 161.855C204.794 161.925 204.752 162.019 204.747 162.119C204.742 162.219 204.775 162.316 204.838 162.393L205.286 163.276C205.538 163.769 205.941 164.345 206.472 164.247C206.716 164.177 206.934 164.037 207.1 163.845L209.116 161.91L211.228 159.882C212.466 158.691 213.725 157.477 214.533 155.959C215.164 157.056 216.283 157.775 217.051 158.782C217.343 159.163 217.58 159.584 217.841 159.989C218.26 160.639 218.735 161.248 219.209 161.855L221.634 164.962C221.94 165.404 222.32 165.79 222.756 166.104C223.329 166.468 224.029 166.566 224.705 166.625C225.615 166.709 226.529 166.742 227.443 166.725C228.14 166.714 228.866 166.668 229.482 166.356C230.099 166.045 230.622 165.404 230.589 164.707C230.552 164.341 230.432 163.989 230.241 163.676C229.385 162.081 228.252 160.748 226.625 159.979Z" fill="#2F2E41"/>
<path d="M228.934 145.07C229.386 145.07 229.752 144.7 229.752 144.244C229.752 143.788 229.386 143.418 228.934 143.418C228.483 143.418 228.116 143.788 228.116 144.244C228.116 144.7 228.483 145.07 228.934 145.07Z" fill="#E8E8F0"/>
<path d="M228.754 143.623C228.939 143.992 228.971 144.42 228.844 144.813C228.718 145.2 228.541 145.568 228.318 145.908C228.126 146.259 227.896 146.588 227.633 146.889C228.896 146.951 230.122 146.453 231.237 145.849C232.135 145.372 233.031 144.765 233.51 143.858C233.368 143.893 233.22 143.896 233.076 143.87C232.931 143.843 232.794 143.787 232.673 143.704C232.432 143.535 232.216 143.333 232.031 143.104L231.398 142.39C231.248 142.233 231.117 142.06 231.007 141.873C230.868 141.62 230.809 141.33 230.838 141.042C230.586 141.307 230.305 141.542 229.999 141.742C229.546 142.04 229.051 142.254 228.593 142.547C228.432 142.652 228.074 142.821 228.166 143.023C228.259 143.225 228.626 143.394 228.754 143.623Z" fill="#FBBEBE"/>
<path opacity="0.1" d="M228.754 143.623C228.939 143.992 228.971 144.42 228.844 144.813C228.718 145.2 228.541 145.568 228.318 145.908C228.126 146.259 227.896 146.588 227.633 146.889C228.896 146.951 230.122 146.453 231.237 145.849C232.135 145.372 233.031 144.765 233.51 143.858C233.368 143.893 233.22 143.896 233.076 143.87C232.931 143.843 232.794 143.787 232.673 143.704C232.432 143.535 232.216 143.333 232.031 143.104L231.398 142.39C231.248 142.233 231.117 142.06 231.007 141.873C230.868 141.62 230.809 141.33 230.838 141.042C230.586 141.307 230.305 141.542 229.999 141.742C229.546 142.04 229.051 142.254 228.593 142.547C228.432 142.652 228.074 142.821 228.166 143.023C228.259 143.225 228.626 143.394 228.754 143.623Z" fill="black"/>
<path d="M228.771 143.747C228.643 143.928 228.574 144.145 228.574 144.367C228.574 144.589 228.643 144.805 228.771 144.987C228.806 145.032 228.941 145.315 229.008 145.318C229.064 145.313 229.116 145.286 229.152 145.244C229.439 144.943 229.707 144.625 229.954 144.292C230.204 143.954 230.565 143.716 230.973 143.62C231.469 143.542 231.945 143.806 232.379 144.058C232.566 144.151 232.728 144.287 232.854 144.454C232.945 144.619 232.999 144.803 233.012 144.992C233.137 146.126 233.184 147.269 233.155 148.41C233.178 149.233 233.124 150.056 232.993 150.869C232.913 151.288 232.792 151.697 232.735 152.121C232.693 152.494 232.677 152.869 232.685 153.245V154.816C232.675 155.104 232.695 155.392 232.747 155.675C232.845 156.013 232.959 156.346 233.091 156.673C233.206 157.061 233.285 157.46 233.328 157.863L233.541 159.489C233.61 160.003 233.66 160.562 233.349 160.974C233.212 161.162 233.027 161.31 232.875 161.495C232.341 162.176 232.519 163.164 232.282 164.009C232.107 164.629 231.748 165.181 231.253 165.592C230.876 165.914 230.388 166.168 229.899 166.068C229.243 165.945 228.847 165.257 228.666 164.607C228.486 163.957 228.429 163.248 228.033 162.702C227.716 162.252 227.225 161.972 226.782 161.65C226.338 161.329 225.902 160.917 225.805 160.374C225.762 160.136 225.788 159.898 225.764 159.66C225.729 159.357 225.613 159.069 225.429 158.826C225.245 158.583 224.998 158.394 224.716 158.279C224.38 158.149 223.962 158.101 223.768 157.803C224.251 157.499 224.603 157.024 224.754 156.473C224.902 155.929 224.981 155.369 224.991 154.806L225.105 152.916C225.155 152.071 225.179 151.233 225.549 150.474C225.715 150.136 225.921 149.817 226.092 149.481C226.32 149.01 226.515 148.523 226.675 148.024C226.943 147.251 227.213 146.475 227.453 145.691C227.548 145.312 227.692 144.947 227.879 144.604C228.1 144.246 228.391 143.818 228.771 143.747Z" fill="#E8E8F0"/>
<path d="M224.591 156.028L225.089 156.044L225.195 155.29C225.21 155.139 225.245 154.99 225.3 154.849C225.382 154.7 225.478 154.559 225.587 154.428C226.077 153.733 226.042 152.809 226.163 151.964C226.324 150.838 226.793 149.781 227.258 148.743L228.225 146.579C228.312 146.401 228.381 146.216 228.432 146.025C228.474 145.814 228.494 145.599 228.491 145.384C228.491 145.051 228.6 143.835 228.607 143.499C228.607 143.375 228.337 143.444 228.28 143.335C228.159 143.097 227.993 143.744 227.765 143.887C227.551 144.052 227.395 144.281 227.32 144.542C227.111 145.087 226.983 145.661 226.789 146.208C226.618 146.769 226.307 147.276 225.885 147.682C225.689 147.858 225.459 147.996 225.271 148.181C224.669 148.779 224.612 149.722 224.591 150.562C224.577 151.083 224.479 156.028 224.591 156.028Z" fill="#2F2E41"/>
<path d="M231.763 142.844C231.289 143.035 231.014 143.559 230.879 144.068C230.743 144.577 230.686 145.115 230.426 145.568C229.819 146.629 228.27 146.939 227.841 148.086C227.732 148.474 227.674 148.874 227.668 149.276C227.592 150.098 227.322 150.893 227.241 151.714C227.2 152.353 227.215 152.994 227.287 153.63L227.829 160.112C227.935 161.067 227.879 162.033 227.666 162.969C228.223 163.05 228.791 162.956 229.292 162.7C229.802 162.462 230.267 162.148 230.755 161.876C231.597 161.4 232.526 161.079 233.261 160.448C233.395 160.344 233.509 160.217 233.6 160.074C233.718 159.802 233.798 159.514 233.837 159.22C233.9 158.99 233.979 158.766 234.075 158.548C234.347 157.895 234.584 157.228 234.786 156.549C234.924 156.099 235.032 155.64 235.111 155.175C235.17 154.806 235.201 154.433 235.234 154.061C235.272 153.477 235.388 152.901 235.578 152.347C236.048 151.027 236.314 149.642 236.367 148.241C236.384 148.039 236.37 147.835 236.327 147.636C236.245 147.396 236.135 147.166 236 146.951C235.775 146.525 235.639 146.056 235.426 145.625C234.952 144.649 234.101 143.908 233.212 143.287C232.756 142.985 232.256 142.656 231.763 142.844Z" fill="#2F2E41"/>
<path d="M220.444 153.421C220.059 153.219 219.71 152.953 219.413 152.635C219.277 152.476 219.176 152.297 219.029 152.14C218.68 151.768 218.228 151.509 217.732 151.397C217.238 151.288 216.733 151.24 216.228 151.252C215.891 151.229 215.552 151.27 215.23 151.374C215.069 151.427 214.923 151.52 214.807 151.645C214.691 151.77 214.608 151.922 214.566 152.088C214.493 152.493 214.756 152.885 215.071 153.142C215.365 153.383 215.71 153.552 216.079 153.635C216.38 153.688 216.684 153.723 216.99 153.742C218.782 153.93 220.382 154.909 221.952 155.801C223.332 156.584 224.739 157.316 226.172 157.999C226.229 157.568 226.253 157.133 226.243 156.699C226.243 156.375 226.22 155.88 225.914 155.689C225.558 155.466 224.965 155.416 224.572 155.282C223.648 154.98 222.746 154.614 221.871 154.187C221.376 153.947 220.902 153.692 220.444 153.421Z" fill="#FBBEBE"/>
<path d="M228.28 143.254C230.044 143.254 231.474 141.81 231.474 140.028C231.474 138.247 230.044 136.803 228.28 136.803C226.516 136.803 225.086 138.247 225.086 140.028C225.086 141.81 226.516 143.254 228.28 143.254Z" fill="#FBBEBE"/>
<path d="M232.676 146.501C232.422 146.859 232.214 147.249 232.057 147.66C231.661 148.477 231.042 149.176 230.734 150.041C230.407 150.938 230.419 152.007 229.786 152.714C229.658 152.821 229.562 152.961 229.508 153.119C229.504 153.217 229.493 153.315 229.475 153.411C229.385 153.668 228.965 153.68 228.887 153.942C228.866 154.018 228.887 154.102 228.849 154.18C228.785 154.349 228.564 154.373 228.415 154.475C228.105 154.687 228.178 155.178 227.941 155.482C227.845 155.596 227.72 155.681 227.58 155.73C227.44 155.78 227.29 155.791 227.144 155.763C226.854 155.702 226.574 155.597 226.314 155.451C226.223 155.4 226.122 155.368 226.018 155.359C225.894 155.361 225.774 155.402 225.674 155.475C225.084 155.851 224.807 156.599 224.811 157.303C224.853 158.008 225.019 158.7 225.302 159.346C225.335 159.458 225.391 159.561 225.466 159.651C225.66 159.858 226.001 159.824 226.262 159.708C226.507 159.563 226.767 159.446 227.038 159.36C227.531 159.27 228.014 159.613 228.515 159.584C228.881 159.528 229.225 159.375 229.513 159.141C230.021 158.832 230.475 158.442 230.86 157.987C231.078 157.699 231.239 157.37 231.431 157.063C231.676 156.686 231.946 156.325 232.237 155.982L234.079 153.718C234.264 153.504 234.43 153.274 234.575 153.03C234.741 152.701 234.871 152.355 234.961 151.997C235.159 151.401 235.287 150.783 235.343 150.157C235.352 149.639 235.307 149.121 235.208 148.612C235.146 148.106 235.013 147.612 234.812 147.144C234.402 146.31 233.427 145.62 232.676 146.501Z" fill="#2F2E41"/>
<path d="M239.092 142.299C239.094 141.727 238.961 141.163 238.704 140.653C238.447 140.142 238.073 139.701 237.612 139.364C237.598 138.349 237.226 137.372 236.561 136.606C235.896 135.841 234.982 135.338 233.982 135.186C233.789 134.225 233.264 133.362 232.499 132.751C231.735 132.14 230.78 131.82 229.803 131.846C228.826 131.873 227.89 132.244 227.159 132.896C226.429 133.547 225.951 134.437 225.809 135.408C224.482 135.108 223.268 135.498 223.047 136.32C222.81 137.179 223.759 138.183 225.162 138.564C225.602 138.689 226.06 138.735 226.516 138.7C226.842 139.181 227.265 139.589 227.758 139.896C228.25 140.203 228.801 140.404 229.375 140.485C229.544 141.262 229.925 141.976 230.476 142.546C231.027 143.117 231.725 143.522 232.493 143.716C232.706 144.231 233.035 144.689 233.456 145.054C233.456 145.153 233.439 145.256 233.439 145.361C233.424 145.727 233.482 146.092 233.611 146.434C233.74 146.777 233.937 147.09 234.19 147.354C234.442 147.619 234.745 147.829 235.081 147.973C235.416 148.116 235.777 148.19 236.142 148.19C236.507 148.19 236.868 148.116 237.203 147.973C237.539 147.829 237.842 147.619 238.095 147.354C238.347 147.09 238.544 146.777 238.673 146.434C238.802 146.092 238.86 145.727 238.845 145.361C238.845 144.95 238.757 144.544 238.587 144.17C238.92 143.604 239.094 142.957 239.092 142.299V142.299Z" fill="#F86D70"/>
<path opacity="0.1" d="M223.948 136.484C224.169 135.662 225.371 135.272 226.71 135.572C226.866 134.586 227.364 133.687 228.116 133.034C228.868 132.38 229.825 132.015 230.819 132.001C230.912 132.001 231.004 132.001 231.094 132.001C230.71 131.884 230.311 131.824 229.909 131.825C228.915 131.839 227.957 132.204 227.205 132.858C226.454 133.511 225.956 134.41 225.8 135.396C224.472 135.096 223.258 135.486 223.038 136.308C222.801 137.167 223.749 138.171 225.153 138.552C225.414 138.625 225.681 138.671 225.952 138.69C224.619 138.3 223.723 137.324 223.948 136.484Z" fill="black"/>
<path opacity="0.1" d="M234.34 145.527C234.34 145.422 234.34 145.32 234.357 145.218C233.936 144.854 233.606 144.397 233.394 143.882C232.627 143.687 231.929 143.281 231.379 142.71C230.828 142.139 230.446 141.426 230.276 140.65C229.702 140.569 229.151 140.368 228.658 140.061C228.166 139.753 227.743 139.346 227.417 138.864C227.151 138.885 226.884 138.878 226.62 138.843C226.948 139.286 227.36 139.66 227.833 139.942C228.306 140.224 228.831 140.409 229.375 140.485C229.544 141.262 229.925 141.976 230.476 142.546C231.027 143.117 231.725 143.522 232.493 143.716C232.706 144.231 233.035 144.689 233.456 145.053C233.456 145.153 233.439 145.256 233.439 145.361C233.427 146.09 233.703 146.795 234.207 147.322C234.71 147.848 235.401 148.153 236.128 148.17C235.597 147.964 235.142 147.601 234.823 147.129C234.503 146.657 234.335 146.098 234.34 145.527Z" fill="black"/>
<path d="M229.741 141.21C229.958 141.045 229.956 140.675 229.737 140.385C229.517 140.095 229.163 139.995 228.947 140.16C228.73 140.325 228.732 140.694 228.951 140.984C229.171 141.274 229.524 141.376 229.741 141.21Z" fill="#FBBEBE"/>
<path d="M153.401 157.261L156.559 155.397C156.132 154.664 155.586 154.008 154.944 153.457L148.988 155.316L153.654 152.562C152.499 151.926 151.199 151.604 149.881 151.626C148.564 151.649 147.276 152.015 146.142 152.689C145.009 153.364 144.07 154.323 143.418 155.472C142.766 156.621 142.423 157.921 142.423 159.244C142.423 163.45 145.821 163.595 150.01 163.595C154.2 163.595 157.597 163.45 157.597 159.244C157.6 158.177 157.377 157.123 156.945 156.149L153.401 157.261Z" fill="#6C63FF"/>
<path opacity="0.1" d="M154.204 161.35C153.868 161.012 153.492 160.715 153.085 160.467C152.514 160.084 151.919 159.693 151.243 159.565C150.65 159.451 150.039 159.548 149.434 159.513C148.384 159.448 147.396 158.993 146.662 158.237C146.231 157.789 145.892 157.239 145.372 156.896C144.792 156.55 144.107 156.424 143.443 156.542C143.25 156.569 143.059 156.608 142.871 156.658C142.574 157.488 142.422 158.362 142.423 159.244C142.423 163.45 145.821 163.595 150.01 163.595C152.044 163.595 153.889 163.562 155.252 163.045L155.015 162.619C154.8 162.163 154.527 161.737 154.204 161.35Z" fill="black"/>
</g>
<defs>
<linearGradient id="paint0_linear_13_959" x1="213.552" y1="169.265" x2="213.552" y2="131.263" gradientUnits="userSpaceOnUse">
<stop stop-color="#808080" stop-opacity="0.25"/>
<stop offset="0.54" stop-color="#808080" stop-opacity="0.12"/>
<stop offset="1" stop-color="#808080" stop-opacity="0.1"/>
</linearGradient>
<clipPath id="clip0_13_959">
<rect width="271" height="158" fill="white" transform="translate(79 17)"/>
</clipPath>
</defs>
</svg>
