<svg width="182" height="280" viewBox="0 0 182 280" fill="none" xmlns="http://www.w3.org/2000/svg">
<path d="M89.1972 41.4759L91.142 66.3551L119.328 54.5823L103.428 29.278L89.1972 41.4759Z" fill="#A0616A"/>
<path d="M88.3528 49.0556C99.9564 49.0556 109.363 39.649 109.363 28.0454C109.363 16.4418 99.9564 7.03526 88.3528 7.03526C76.7492 7.03526 67.3426 16.4418 67.3426 28.0454C67.3426 39.649 76.7492 49.0556 88.3528 49.0556Z" fill="#A0616A"/>
<path d="M49.0458 223.936L52.6035 255.848L27.6994 252.398L35.8314 222.92L49.0458 223.936Z" fill="#A0616A"/>
<path d="M146.121 228.511L149.678 260.422L124.774 256.972L132.906 227.494L146.121 228.511Z" fill="#A0616A"/>
<path d="M86.9101 132.198C86.5701 132.198 59.3907 133.563 41.4337 134.466C32.9344 134.894 26.4648 142.25 27.1242 150.734L33.5443 233.339L51.8411 233.847L52.2873 167.267L88.4348 169.3L86.9101 132.198Z" fill="#2F2E41"/>
<path d="M166.705 131.69C166.705 131.69 171.279 166.759 167.721 170.316C164.163 173.874 52.6035 167.521 52.6035 167.521C52.6035 167.521 77.0773 132.179 81.4855 131.172C85.8936 130.165 156.032 126.607 156.032 126.607L166.705 131.69V131.69Z" fill="#2F2E41"/>
<path d="M22.1809 87.537C17.9324 81.5952 17.5545 74.5868 21.3363 71.8837C25.1181 69.1805 31.6266 71.8063 35.8758 77.7508C37.6057 80.1021 38.7474 82.8335 39.2054 85.7164L56.8883 111.119L46.825 118.086L28.6428 93.2665C26.0621 91.9002 23.8463 89.9355 22.1809 87.537V87.537Z" fill="#A0616A"/>
<path d="M88.531 168.238C82.0523 171.612 75.0602 171.003 72.9139 166.88C70.7677 162.756 74.28 156.68 80.7615 153.306C83.3321 151.923 86.1965 151.176 89.1152 151.126L116.746 137.179L122.234 148.12L95.11 162.643C93.3953 165.007 91.1393 166.925 88.531 168.238V168.238Z" fill="#A0616A"/>
<path d="M88.1807 57.2316L114.101 46.5584L162.893 121.779C162.893 121.779 128.84 129.403 117.151 130.927C105.461 132.452 92.2467 126.353 92.2467 126.353L88.1807 57.2316V57.2316Z" fill="#E6E6E6"/>
<path d="M119.692 69.9377L110.289 40.6075L122.487 49.862C122.487 49.862 157.048 72.7331 157.048 82.3898C157.048 92.0464 167.721 121.525 167.721 121.525C167.721 121.525 179.665 131.436 175.599 140.584C171.533 149.732 180.936 148.462 181.952 155.069C182.969 161.676 167.467 170.57 167.467 170.57C167.467 170.57 163.655 133.214 151.457 133.214C139.259 133.214 119.692 69.9377 119.692 69.9377Z" fill="#3F3D56"/>
<path d="M90.0021 56.4816L77.2534 61.5517C77.2534 61.5517 79.2864 97.1289 81.3194 100.178C83.3524 103.228 90.4678 119.492 90.4678 119.492V124.792C90.4678 124.792 76.2369 129.148 76.7452 131.69C77.2534 134.231 110.289 141.346 110.289 141.346C110.289 141.346 103.682 121.016 99.6162 114.409C95.5503 107.802 90.0021 56.4816 90.0021 56.4816V56.4816Z" fill="#3F3D56"/>
<path d="M119.946 49.3538C119.946 49.3538 148.408 47.829 154.507 63.0764C160.606 78.3238 165.688 128.132 165.688 128.132L103.682 161.866L93.009 145.412L134.685 112.885L119.946 49.3538V49.3538Z" fill="#3F3D56"/>
<path d="M81.8276 61.5517C81.8276 61.5517 67.0885 59.5187 64.5473 76.7991C62.006 94.0794 63.6208 96.3665 63.6208 96.3665L59.4648 106.277L45.7422 91.0299L32.5278 99.6701C32.5278 99.6701 56.4153 138.297 66.072 137.28C75.7287 136.264 89.9596 108.31 89.9596 108.31L81.8276 61.5517V61.5517Z" fill="#3F3D56"/>
<path d="M155.441 137.3L147.9 244.012L128.332 243.25C128.332 243.25 124.012 142.363 124.012 140.838C124.012 139.313 126.045 130.673 138.751 130.165C151.457 129.657 155.441 137.3 155.441 137.3Z" fill="#2F2E41"/>
<path d="M127.062 246.045C127.062 246.045 137.226 242.996 138.751 245.029C140.276 247.062 148.916 248.078 148.916 248.078L151.457 272.982C151.457 272.982 144.342 278.065 143.325 279.081C142.309 280.097 115.372 281.114 114.864 275.015C114.355 268.916 121.979 261.292 121.979 261.292L127.062 246.045V246.045Z" fill="#2F2E41"/>
<path d="M52.3494 238.93C52.3494 238.93 55.3988 236.388 56.4153 243.504C57.4318 250.619 60.9895 262.309 55.9071 263.834C50.8246 265.358 0 265.867 0 261.292V256.718L4.57422 253.16L13.7246 251.702C13.7246 251.702 31.5113 235.372 33.5442 235.372C35.5772 235.372 42.1844 241.979 42.1844 241.979L52.3494 238.93V238.93Z" fill="#2F2E41"/>
<path d="M109.019 39.4429C109.019 39.4429 98.8539 27.245 94.7879 28.2615C90.7219 29.278 93.2632 30.8028 93.2632 30.8028L83.0982 19.6213C83.0982 19.6213 74.9663 16.5719 67.3426 26.2285C67.3426 26.2285 62.7684 18.0966 67.3426 13.5224C71.9168 8.94818 73.4416 9.45643 74.458 6.9152C75.4745 4.37397 82.59 2.34098 82.59 2.34098C82.59 2.34098 82.1818 -1.31679 84.4189 0.512094C86.656 2.34098 92.2427 2.34098 92.2427 2.34098C92.2427 2.34098 92.2747 0.307998 94.5478 2.34098C96.8209 4.37397 99.3621 3.35747 99.3621 3.35747C99.3621 3.35747 99.3621 6.87518 101.141 6.89519C102.92 6.9152 105.969 4.37397 106.478 6.40695C106.986 8.43993 110.544 9.45643 111.052 15.5554C111.56 21.6543 109.019 39.4429 109.019 39.4429V39.4429Z" fill="#2F2E41"/>
</svg>
