<svg width="200" height="137" viewBox="0 0 200 137" fill="none" xmlns="http://www.w3.org/2000/svg">
<path d="M178.723 136.651L5.3682 125.181C2.80875 125.012 0.767537 123.351 0.168115 120.95C-0.431598 118.55 0.602493 116.178 2.80223 114.908L41.1359 92.7725C42.1093 92.2101 43.2257 91.937 44.3576 91.9894L194.308 98.5491C196.29 98.6352 198.061 99.6772 199.044 101.336C200.028 102.995 200.059 104.992 199.128 106.678L184.199 133.724C183.197 135.539 181.232 136.664 179.117 136.664C178.986 136.664 178.854 136.66 178.723 136.651V136.651Z" fill="#3F3D56"/>
<path d="M3.86505 118.489L176.507 129.877L190.16 101.553L42.1273 95.9659L3.86505 118.489Z" fill="white"/>
<path d="M141.088 104.81C144.426 104.937 146.966 107.815 147.15 110.933C147.341 114.17 145.003 117.151 142.194 118.692C138.903 120.497 134.795 120.787 131.09 120.476C127.757 120.196 124.131 119.199 121.986 116.55C120.182 114.322 119.518 110.954 121.053 108.425C122.574 105.917 125.811 105.224 128.518 106.231C131.382 107.296 133.184 109.803 133.202 112.766C133.222 116.051 131.251 119.086 128.485 120.902C125.502 122.861 121.747 123.491 118.196 123.483C114.326 123.474 110.474 122.693 106.915 121.241C103.58 119.882 100.248 117.921 97.8634 115.257C95.6279 112.759 94.2896 109.294 95.5306 106.054C96.5484 103.397 99.1196 101.769 102.064 101.994C104.76 102.2 107.487 103.705 108.684 106.102C110.034 108.807 109.427 112.052 107.709 114.471C105.725 117.263 102.59 118.832 99.1073 119.059C95.4012 119.3 91.7309 118.032 88.6821 116.073C85.8591 114.259 83.3781 111.937 80.3471 110.427C78.8885 109.701 77.3012 109.239 75.6499 109.241C73.547 109.244 71.5252 109.908 69.4803 110.294C67.747 110.621 65.9604 110.811 64.25 110.278C62.7862 109.822 61.4164 108.986 60.4945 107.787C59.6223 106.653 59.3161 105.232 59.8102 103.885C60.1976 102.829 61.9571 103.284 61.5656 104.351C60.6622 106.813 63.7614 108.623 65.9308 108.849C67.5766 109.02 69.2746 108.562 70.8625 108.205C72.5173 107.832 74.2093 107.451 75.9203 107.492C81.982 107.635 85.9891 112.622 90.8765 115.327C96.0148 118.172 103.539 118.37 106.686 112.718C107.829 110.665 108.065 107.936 106.495 106.018C105.187 104.42 102.863 103.464 100.758 103.774C98.1129 104.163 96.7956 106.587 96.8917 108.997C97.0093 111.946 99.1454 114.343 101.424 116.109C106.495 120.041 113.219 122.044 119.706 121.693C122.749 121.528 125.983 120.765 128.347 118.815C130.39 117.131 131.784 114.391 131.293 111.766C130.868 109.495 128.889 107.772 126.497 107.543C124.051 107.31 122.139 108.981 122.03 111.333C121.907 113.979 123.54 116.187 125.906 117.391C128.587 118.756 131.836 118.925 134.807 118.777C137.961 118.619 141.248 117.819 143.455 115.507C145.338 113.535 146.052 110.61 144.317 108.329C143.551 107.322 142.4 106.612 141.088 106.562C139.92 106.518 139.915 104.766 141.088 104.81V104.81Z" fill="#6C63FF"/>
<path d="M58.1182 102.933L59.0462 97.4103L110.55 2.67465C111.403 1.10561 113.424 0.496776 115.054 1.3177C116.685 2.13876 117.317 4.08368 116.464 5.65272L64.9835 100.346L60.7748 104.271C60.2769 104.733 59.5588 104.832 58.9458 104.524C58.333 104.215 58.0083 103.591 58.1182 102.933H58.1182Z" fill="#3F3D56"/>
</svg>
