<svg width="307" height="194" viewBox="0 0 307 194" fill="none" xmlns="http://www.w3.org/2000/svg">
<path d="M169.692 22.9507H169.692C172.955 22.9507 176.084 24.2489 178.392 26.5598C180.699 28.8708 181.995 32.005 181.995 35.2732V47.3416H157.388V35.2732C157.388 33.6549 157.706 32.0526 158.325 30.5575C158.943 29.0625 159.849 27.7041 160.992 26.5598C162.134 25.4156 163.491 24.5079 164.983 23.8887C166.476 23.2694 168.076 22.9507 169.692 22.9507V22.9507Z" fill="#2F2E41"/>
<path d="M181.868 48.739C177.356 51.9498 171.344 53.1881 164.872 53.8205C169.331 50.1967 167.584 46.1943 164.872 42.1331L174.765 41.1169C175.051 44.8036 177.906 47.0763 181.868 48.739Z" fill="#FFB8B8"/>
<path d="M183.898 87.1039L154.725 83.0388C157.089 78.5767 158.677 74.2661 158.12 70.3733C157.824 68.4279 157.848 66.4469 158.193 64.5096L158.379 63.518C158.765 61.6099 159.502 59.7904 160.552 58.152C161.724 56.2612 161.32 53.4203 160.813 50.5175L167.662 49.5012C171.442 51.424 175.685 50.1429 180.092 47.7227L188.21 48.4849C187.66 62.9732 186.451 76.2618 183.898 87.1039Z" fill="#E6E6E6"/>
<path d="M208.251 174.251L202.67 175.267L166.648 112.511L152.442 175.267L147.368 175.013C147.257 139.449 145.66 100.401 154.248 85.2347C157.47 77.5772 162.399 70.2448 160.559 62.713C167.785 64.822 175.059 64.6713 182.376 62.4589C182.032 71.4963 182.358 79.9637 183.644 87.6121L208.251 174.251Z" fill="#6C63FF"/>
<path d="M206.662 191.274C205.443 191.274 204.259 190.871 203.292 190.129C202.325 189.387 201.629 188.346 201.313 187.168L200.818 185.327C200.701 184.891 200.665 184.437 200.714 183.988L201.655 175.267C203.45 173.038 206.061 172.501 209.773 174.251L212.067 184.514C212.248 185.325 212.245 186.167 212.058 186.977C211.871 187.787 211.504 188.545 210.985 189.194C210.466 189.843 209.808 190.367 209.06 190.727C208.311 191.087 207.492 191.274 206.662 191.274V191.274Z" fill="#2F2E41"/>
<path d="M150.598 191.274C149.38 191.274 148.196 190.871 147.229 190.129C146.262 189.387 145.566 188.346 145.25 187.168L144.755 185.327C144.638 184.891 144.602 184.437 144.651 183.989L145.592 175.267C147.387 173.038 149.998 172.501 153.71 174.251L156.004 184.514C156.185 185.325 156.182 186.167 155.995 186.977C155.808 187.787 155.441 188.545 154.922 189.194C154.403 189.843 153.745 190.367 152.997 190.727C152.248 191.087 151.429 191.274 150.598 191.274V191.274Z" fill="#2F2E41"/>
<path d="M168.423 45.182C173.047 45.182 176.795 41.4282 176.795 36.7976C176.795 32.167 173.047 28.4132 168.423 28.4132C163.8 28.4132 160.052 32.167 160.052 36.7976C160.052 41.4282 163.8 45.182 168.423 45.182Z" fill="#FFB8B8"/>
<path d="M161.954 65.1267C162.375 65.1267 162.716 64.7854 162.716 64.3645C162.716 63.9435 162.375 63.6022 161.954 63.6022C161.534 63.6022 161.193 63.9435 161.193 64.3645C161.193 64.7854 161.534 65.1267 161.954 65.1267Z" fill="#E6E6E6"/>
<path d="M181.234 65.1267C181.654 65.1267 181.995 64.7854 181.995 64.3645C181.995 63.9435 181.654 63.6022 181.234 63.6022C180.814 63.6022 180.473 63.9435 180.473 64.3645C180.473 64.7854 180.814 65.1267 181.234 65.1267Z" fill="#E6E6E6"/>
<path d="M173.877 35.6542L160.686 35.4203V26.7617H176.668L173.877 35.6542Z" fill="#2F2E41"/>
<path d="M179.205 47.0875H173.37C175.526 41.9274 175.336 36.4843 173.37 30.8269H179.205V47.0875Z" fill="#2F2E41"/>
<path d="M186.435 95.2342L182.978 99.2927C182.534 99.814 181.973 100.222 181.34 100.482C180.707 100.743 180.021 100.848 179.34 100.79C178.658 100.732 178 100.512 177.42 100.148C176.841 99.7844 176.356 99.2875 176.006 98.6986V98.6986C175.693 98.1711 175.496 97.5827 175.428 96.9728C175.36 96.3629 175.423 95.7455 175.613 95.162C175.803 94.5785 176.115 94.0423 176.528 93.5892C176.941 93.1362 177.446 92.7768 178.01 92.535L184.151 89.8987L191.508 79.4818L187.449 61.4426L194.552 59.156L198.611 82.0225L186.435 95.2342Z" fill="#FFB8B8"/>
<path d="M159.798 97.1349L163.254 101.193C163.698 101.715 164.26 102.122 164.893 102.383C165.526 102.643 166.211 102.749 166.893 102.691C167.575 102.633 168.233 102.413 168.812 102.049C169.392 101.685 169.877 101.188 170.227 100.599V100.599C170.54 100.072 170.737 99.4834 170.805 98.8735C170.872 98.2636 170.809 97.6462 170.62 97.0627C170.43 96.4792 170.118 95.943 169.705 95.4899C169.291 95.0369 168.786 94.6775 168.223 94.4357L162.081 91.7994L154.725 81.3824L158.783 63.3433L151.68 61.0567L147.622 83.9232L159.798 97.1349Z" fill="#FFB8B8"/>
<path d="M195.567 60.1723C193.975 60.1249 192.39 60.4053 190.91 60.9961C189.431 61.5869 188.088 62.4756 186.965 63.6071L184.428 48.3627L187.496 48.3267C188.747 48.3731 189.954 48.8029 190.953 49.558C191.953 50.3131 192.697 51.3572 193.085 52.5493L195.567 60.1723Z" fill="#E6E6E6"/>
<path d="M150.666 62.073C152.258 62.0256 153.843 62.306 155.323 62.8968C156.802 63.4876 158.145 64.3763 159.268 65.5078C162.204 61.0477 162.629 55.8414 161.805 50.2634L158.736 50.2274C157.485 50.2738 156.279 50.7036 155.279 51.4587C154.28 52.2138 153.536 53.2579 153.148 54.45L150.666 62.073Z" fill="#E6E6E6"/>
<path d="M181.107 63.7293H181.387L183.071 48.0636C183.076 48.0206 183.071 47.9772 183.058 47.936C183.045 47.8949 183.023 47.857 182.994 47.8249C182.965 47.7927 182.93 47.767 182.891 47.7494C182.851 47.7318 182.808 47.7227 182.765 47.7227H181.415C181.333 47.7228 181.255 47.7553 181.197 47.8131C181.14 47.8708 181.107 47.9492 181.107 48.0309V63.7293Z" fill="#6C63FF"/>
<path d="M161.574 64.4915H161.856L163.54 50.152C163.544 50.1182 163.541 50.0839 163.531 50.0513C163.521 50.0188 163.504 49.9888 163.481 49.9633C163.458 49.9379 163.431 49.9175 163.399 49.9035C163.368 49.8896 163.335 49.8823 163.301 49.8823H161.815C161.751 49.8824 161.69 49.9079 161.645 49.9532C161.6 49.9985 161.574 50.0599 161.574 50.124V64.4915Z" fill="#6C63FF"/>
<path d="M60.6192 189.117H64.9748L67.0471 172.356L60.6186 172.356L60.6192 189.117Z" fill="#A0616A"/>
<path d="M59.5084 187.698L68.0861 187.698H68.0864C69.5361 187.698 70.9265 188.272 71.9516 189.295C72.9767 190.318 73.5526 191.705 73.5528 193.151V193.328L59.5087 193.329L59.5084 187.698Z" fill="#2F2E41"/>
<path d="M89.3914 189.117H93.747L95.8192 172.356L89.3907 172.356L89.3914 189.117Z" fill="#A0616A"/>
<path d="M88.2805 187.698L96.8582 187.698H96.8585C98.3082 187.698 99.6986 188.272 100.724 189.295C101.749 190.318 102.325 191.705 102.325 193.151V193.328L88.2808 193.329L88.2805 187.698Z" fill="#2F2E41"/>
<path d="M56.9724 185.482H68.2552L75.4667 122.484L88.7258 185.482H96.3387V110.359L60.1428 99.5519L56.9724 185.482Z" fill="#2F2E41"/>
<path d="M76.2104 44.1227C81.6446 44.1227 86.0498 39.7276 86.0498 34.3061C86.0498 28.8846 81.6446 24.4896 76.2104 24.4896C70.7763 24.4896 66.371 28.8846 66.371 34.3061C66.371 39.7276 70.7763 44.1227 76.2104 44.1227Z" fill="#A0616A"/>
<path d="M60.9355 101.134C71.4932 109.371 83.1469 113.523 96.3387 111.941C90.7672 92.424 89.1147 73.055 94.4893 53.951L83.3928 48.9428L70.9195 48.1521L61.8538 50.8122C60.5786 51.1869 59.4621 51.9694 58.6763 53.0392C57.8906 54.1091 57.4792 55.407 57.5054 56.7331C57.8255 73.0252 56.7398 88.2724 60.9355 101.134Z" fill="#E6E6E6"/>
<path d="M66.7934 29.3696C67.74 27.5878 68.9427 24.0366 70.8533 23.378C71.9143 23.027 73.011 22.794 74.1233 22.683L77.3707 23.9292L75.6033 22.5577C75.9474 22.5373 76.2913 22.5206 76.6351 22.5076L78.8262 23.3484L77.7052 22.4785C79.7479 22.4576 81.8565 22.6695 83.4393 23.9101C84.7887 24.9678 86.1257 28.9745 86.3418 30.6728C86.5729 32.2975 86.492 33.9512 86.1035 35.5458L85.5486 36.0722C85.3545 35.6282 85.2085 35.1647 85.1132 34.6897C84.9143 33.8021 84.5322 32.9656 83.9913 32.2335C83.4505 31.5015 82.7626 30.8898 81.9717 30.4376L81.9415 30.4206C81.0108 29.898 79.8816 29.9221 78.8143 29.9605L73.7455 30.1424C72.526 30.1862 71.2128 30.2632 70.2621 31.0264C69.6199 31.5418 69.2351 32.3026 68.8693 33.0393C68.3969 33.9906 67.4737 37.5787 67.4737 37.5787C67.4737 37.5787 66.9514 36.9014 66.701 37.4055C66.2996 36.0903 66.0555 34.7323 65.9739 33.3598C65.894 31.9812 66.1765 30.6058 66.7934 29.3696V29.3696Z" fill="#2F2E41"/>
<path d="M67.124 107.569C67.1217 107.077 67.0114 106.591 66.8007 106.147C66.59 105.702 66.2842 105.309 65.9047 104.995C65.5252 104.681 65.0813 104.453 64.6043 104.329C64.1273 104.205 63.6287 104.186 63.1437 104.275L57.2388 93.8693L54.8024 98.8515L60.4456 108.435C60.6489 109.238 61.1403 109.938 61.8268 110.404C62.5133 110.87 63.3471 111.068 64.1703 110.961C64.9935 110.854 65.7489 110.45 66.2933 109.825C66.8377 109.2 67.1333 108.397 67.124 107.569V107.569Z" fill="#A0616A"/>
<path d="M93.5271 119.136C93.294 118.703 93.1591 118.224 93.1317 117.733C93.1044 117.241 93.1853 116.75 93.3688 116.294C93.5523 115.837 93.8339 115.426 94.1938 115.09C94.5537 114.754 94.9831 114.5 95.4517 114.347L95.67 102.392L100.806 105.907L99.8114 116.721C100.016 117.523 99.9194 118.373 99.5384 119.109C99.1575 119.845 98.5192 120.416 97.7446 120.714C96.97 121.011 96.1128 121.015 95.3355 120.724C94.5582 120.434 93.9147 119.869 93.5271 119.136H93.5271Z" fill="#A0616A"/>
<path d="M57.7651 106.142L61.9923 102.188L59.8229 80.8372L62.3329 50.6562C56.8806 52.3658 51.0263 56.9582 50.062 62.5784L46.6128 82.6823L57.7651 106.142Z" fill="#E6E6E6"/>
<path opacity="0.2" d="M60.2194 69.371L56.7845 83.0776L61.9923 102.528L58.634 84.132L60.2194 69.371Z" fill="black"/>
<path d="M94.2252 113.522L101.094 114.313L99.486 63.4225C99.4142 61.1486 98.6875 58.9434 97.3928 57.0706C96.0982 55.1978 94.2903 53.7365 92.1854 52.8615L89.7337 51.8423L90.3942 75.6972L94.2252 113.522Z" fill="#E6E6E6"/>
<path opacity="0.2" d="M91.6534 76.4767L94.3047 105.847L89.8152 76.6815L91.6534 76.4767Z" fill="black"/>
</svg>
