<svg width="275" height="281" viewBox="0 0 275 281" fill="none" xmlns="http://www.w3.org/2000/svg">
<path d="M143.203 0L74.6121 13.8014L86.7988 62.5259C92.7969 86.5074 93.4803 111.456 88.8034 135.714C88.8034 135.714 159.76 154.115 159.76 144.915C159.76 135.714 149.889 81 149.889 54C147.32 28 143.203 0 143.203 0Z" fill="#6C63FF"/>
<path d="M178.682 173.26C176.316 164.059 156.665 122.343 155.847 129.4C155.029 136.457 117.186 147.958 102.995 134.156C102.995 134.156 84.0731 118.055 76.9774 134.156C69.8818 150.258 55.6905 177.861 55.6905 177.861C55.6905 177.861 -8.17021 207.764 1.29064 223.865C3.20409 227.122 8.50566 228.495 15.7435 228.616C15.5736 229.042 15.485 229.494 15.4819 229.951V231.581C15.4819 232.585 15.892 233.548 16.622 234.258C17.352 234.968 18.342 235.366 19.3743 235.366H21.0503C22.0827 235.366 23.0727 234.968 23.8027 234.258C24.5326 233.548 24.9427 232.585 24.9428 231.581V229.951C24.939 229.364 24.7933 228.786 24.5176 228.264C26.452 228.099 28.4588 227.881 30.522 227.617C29.9757 228.279 29.6764 229.102 29.6732 229.951V231.581C29.6732 232.585 30.0833 233.548 30.8133 234.258C31.5432 234.968 32.5333 235.366 33.5656 235.366H35.2416C36.2739 235.366 37.264 234.968 37.9939 234.258C38.7239 233.548 39.134 232.585 39.134 231.581V229.951C39.1322 229.277 38.9445 228.615 38.5904 228.036C38.2364 227.456 37.7289 226.979 37.1209 226.655C42.5649 225.771 48.2469 224.648 53.8965 223.402C53.5259 223.988 53.3282 224.662 53.3253 225.35V226.98C53.3253 227.984 53.7354 228.947 54.4654 229.657C55.1954 230.367 56.1854 230.766 57.2177 230.766H58.8937C59.9261 230.766 60.9161 230.367 61.6461 229.657C62.376 228.947 62.7861 227.984 62.7861 226.98V225.35C62.7855 224.619 62.5665 223.903 62.1558 223.29C61.7451 222.676 61.1602 222.192 60.4722 221.896C64.7096 220.891 75.0178 218.192 78.9708 217.154C78.0388 218.632 78.6017 217.739 78.9708 217.154C78.9783 218.866 78.9708 218.158 78.9708 217.154C76.4086 219.366 76.8345 218.866 77.8669 218.866C78.3808 217.866 76.839 222.866 77.4365 221.366C77.3529 219.366 78.9707 218.158 78.9708 217.154C79.9188 218.515 80.4113 219.162 79.9188 218.515C79.4264 217.867 79.7619 217.391 78.9708 217.154C92.8609 213.348 102.995 210.064 102.995 210.064C102.995 210.064 122.718 202.704 136.968 197.078L129.012 201.678C129.012 202.682 129.422 203.645 130.152 204.355C130.882 205.065 131.872 205.463 132.904 205.463H134.581C135.613 205.463 136.603 205.065 137.333 204.355C138.063 203.645 138.473 202.682 138.473 201.678V200.048C138.471 199.474 138.335 198.908 138.074 198.393C137.813 197.879 137.435 197.429 136.968 197.078C139.828 195.909 142.714 194.706 145.569 193.483V194.777C145.569 195.781 145.979 196.744 146.709 197.454C147.439 198.164 148.429 198.563 149.461 198.563H151.137C152.169 198.563 153.159 198.164 153.889 197.454C154.619 196.744 155.029 195.781 155.029 194.777V193.147C155.029 192.538 154.877 191.938 154.587 191.399C154.297 190.859 153.877 190.396 153.363 190.048C156.45 188.648 159.422 187.249 162.163 185.879C162.151 186.002 162.125 186.121 162.125 186.246V187.877C162.125 188.881 162.535 189.843 163.265 190.553C163.995 191.263 164.985 191.662 166.017 191.662H167.693C168.726 191.662 169.716 191.263 170.446 190.553C171.176 189.843 171.586 188.881 171.586 187.877V186.246C171.586 185.374 171.276 184.528 170.708 183.852C170.14 183.176 169.35 182.712 168.471 182.537C175.084 178.802 179.254 175.489 178.682 173.26Z" fill="#2F2E41"/>
<path d="M273.526 74.6005L198.596 70C198.596 70 203.137 145.908 194.055 171.21C184.972 196.513 189.513 205.714 189.513 205.714L261.927 200.5L269.636 143.5L273.526 74.6005Z" fill="#6C63FF"/>
<path d="M274.448 242.367C274.107 232.888 263.831 188.104 261.519 194.84C259.206 201.576 219.728 205.15 208.808 188.775C208.808 188.775 193.754 169.19 183.362 183.499C172.971 197.808 153.173 221.926 153.173 221.926C153.173 221.926 84.3051 238.222 90.1059 255.889C91.2791 259.462 96.1697 261.88 103.223 263.466C102.965 263.848 102.782 264.272 102.681 264.718L102.331 266.312C102.116 267.294 102.31 268.319 102.872 269.161C103.434 270.004 104.317 270.595 105.326 270.804L106.965 271.144C107.975 271.353 109.029 271.164 109.895 270.618C110.761 270.071 111.369 269.213 111.584 268.231L111.933 266.637C112.056 266.062 112.037 265.467 111.879 264.9C113.807 265.131 115.816 265.325 117.89 265.486C117.214 266.022 116.745 266.766 116.56 267.596L116.21 269.19C115.995 270.172 116.19 271.197 116.752 272.039C117.313 272.881 118.196 273.472 119.206 273.682L120.845 274.021C121.854 274.231 122.908 274.041 123.774 273.495C124.64 272.949 125.248 272.09 125.463 271.109L125.813 269.514C125.955 268.854 125.914 268.17 125.692 267.531C125.47 266.892 125.075 266.323 124.55 265.883C130.064 266.122 135.862 266.176 141.655 266.102C141.167 266.601 140.829 267.22 140.678 267.892L140.329 269.487C140.114 270.469 140.308 271.494 140.87 272.336C141.432 273.178 142.314 273.769 143.324 273.978L144.963 274.318C145.973 274.528 147.027 274.338 147.893 273.792C148.759 273.246 149.366 272.387 149.582 271.405L149.931 269.811C150.087 269.095 150.027 268.351 149.757 267.668C149.486 266.985 149.018 266.392 148.409 265.963C152.768 265.84 157.055 265.658 161.144 265.444C160.657 265.941 160.321 266.559 160.17 267.23L159.821 268.824C159.606 269.806 159.8 270.831 160.362 271.673C160.924 272.516 161.807 273.106 162.816 273.316L164.455 273.656C165.465 273.865 166.519 273.676 167.385 273.13C168.251 272.583 168.858 271.725 169.074 270.743L169.423 269.148C169.594 268.361 169.501 267.541 169.158 266.808C168.815 266.075 168.24 265.468 167.517 265.076C181.918 264.171 192.533 263.014 192.533 263.014C192.533 263.014 204.936 261.327 220.078 258.714L219.777 260.088C219.561 261.07 219.756 262.095 220.318 262.937C220.879 263.779 221.762 264.37 222.772 264.579L224.411 264.919C225.421 265.129 226.475 264.939 227.341 264.393C228.207 263.847 228.814 262.988 229.03 262.006L229.379 260.412C229.501 259.851 229.488 259.269 229.344 258.713C229.199 258.157 228.925 257.64 228.543 257.202C231.592 256.639 234.672 256.048 237.726 255.431L237.449 256.696C237.233 257.678 237.428 258.703 237.99 259.545C238.551 260.388 239.434 260.978 240.444 261.188L242.083 261.528C243.093 261.737 244.146 261.548 245.013 261.001C245.879 260.455 246.486 259.597 246.701 258.615L247.051 257.02C247.181 256.425 247.162 255.808 246.994 255.221C246.825 254.634 246.514 254.096 246.086 253.652C249.405 252.909 252.612 252.143 255.586 251.359C255.548 251.476 255.497 251.587 255.47 251.71L255.121 253.304C254.906 254.286 255.1 255.311 255.662 256.154C256.224 256.996 257.106 257.587 258.116 257.796L259.755 258.136C260.765 258.345 261.819 258.156 262.685 257.61C263.551 257.063 264.158 256.205 264.374 255.223L264.723 253.629C264.91 252.775 264.788 251.885 264.378 251.109C263.968 250.333 263.294 249.718 262.472 249.369C269.741 247.058 274.53 244.663 274.448 242.367Z" fill="#2F2E41"/>
<path d="M77.5545 219.272C77.5553 219.279 77.5584 219.281 77.5622 219.287" stroke="white" stroke-width="3" stroke-linecap="round"/>
<path d="M78.3191 218.865H78.3041" stroke="#FF7F11" stroke-width="3" stroke-linecap="round"/>
<path d="M76.7074 219.567C76.7074 219.761 76.7696 219.94 76.8541 220.105C76.8966 220.187 77.0033 220.179 77.0835 220.179C77.139 220.179 77.1613 220.176 77.1714 220.234C77.1853 220.314 77.2088 220.399 77.2362 220.476C77.2433 220.495 77.2497 220.504 77.2413 220.472C77.2206 220.391 77.1648 220.325 77.1287 220.251C77.0852 220.161 77.0605 220.073 77.0383 219.978C77.0027 219.824 76.969 219.622 77.1066 219.511C77.152 219.474 77.1669 219.42 77.2072 219.381C77.271 219.319 77.3478 219.276 77.4187 219.224C77.5201 219.148 77.6165 219.369 77.6508 219.451C77.6872 219.538 77.7904 219.666 77.7514 219.761" stroke="#FF7F11" stroke-width="3" stroke-linecap="round"/>
<path d="M81.2519 222.017C81.2519 221.902 81.2426 221.784 81.2835 221.675C81.3358 221.535 81.3287 221.403 81.3287 221.256C81.3287 221.118 81.274 220.957 81.2263 220.826C81.1716 220.676 81.0978 220.518 81.0139 220.382C80.9235 220.235 80.8563 220.07 80.7981 219.908C80.765 219.816 80.6752 219.713 80.6139 219.633C80.5447 219.542 80.456 219.465 80.3998 219.365C80.3522 219.279 80.2756 219.178 80.2574 219.082C80.2362 218.971 80.1809 218.847 80.1772 218.736C80.1743 218.65 80.1549 218.515 80.0697 218.47C80.029 218.448 80.0077 218.405 79.9776 218.372C79.9242 218.314 79.8924 218.233 79.836 218.171C79.7673 218.096 79.6707 217.999 79.6279 217.906C79.6138 217.875 79.5929 217.862 79.5597 217.853C79.5053 217.837 79.4145 217.839 79.3584 217.834C79.2971 217.829 79.2612 217.775 79.2065 217.756C79.1883 217.75 79.1334 217.753 79.1212 217.741C79.1025 217.723 79.1178 217.636 79.1178 217.61" stroke="#FF7F11" stroke-linecap="round"/>
<path d="M58.9743 252.384C58.9743 250.804 59.0608 249.17 59.5304 247.647C59.767 246.88 60.309 245.94 60.309 245.135C60.309 243.751 61.0862 242.676 61.1864 241.311C61.277 240.077 61.6319 239.023 61.9897 237.837C62.4456 236.325 62.5411 234.823 62.7806 233.28C62.9297 232.319 64.1906 230.657 62.657 230.515C61.7807 230.434 61.3465 229.6 60.6303 229.228C59.8666 228.832 59.1328 228.795 58.2946 228.795C57.7772 228.795 55.8994 228.486 55.6871 229.06C55.1805 230.429 58.1085 228.658 58.307 228.531C59.077 228.039 59.497 227.472 59.1473 228.795C59.022 229.269 58.3864 229.849 57.8621 229.878C56.6731 229.942 58.152 228.01 58.3564 227.761C59.213 226.72 61.3819 225.324 61.7178 223.962C61.7761 223.726 60.4839 224.465 60.4078 224.527C59.7773 225.048 59.1163 225.829 58.8013 226.583C58.6434 226.961 58.5294 227.522 58.5294 227.93" stroke="#FF7F11" stroke-linecap="round"/>
<path d="M66.5374 254.981C65.051 254.821 64.6035 248.052 64.4365 246.974C63.941 243.777 62.9711 240.741 62.4222 237.572C62.075 235.568 62.0732 233.087 61.0752 231.284C60.4494 230.154 59.953 229.878 58.7024 229.878C57.5546 229.878 57.4227 229.803 56.5522 229.18C55.5373 228.454 54.8241 227.713 56.6387 227.713C57.4531 227.713 58.6838 227.374 59.2833 226.836C60.1111 226.092 60.9486 225.558 61.3718 226.896C61.4824 227.246 61.4212 227.674 61.4212 228.038C61.4212 228.446 62.2889 227.325 62.4345 227.112C62.8494 226.507 62.9106 224.381 63.1884 225.056C63.675 226.24 63.2007 228.474 63.2007 229.817C63.2007 231.006 62.7145 227.463 62.1874 226.391C62.0435 226.098 60.8758 223.851 60.3584 224.299C59.6913 224.876 60.6848 226.671 61.5695 226.631C62.5137 226.589 62.5652 225.975 63.0895 225.465C63.7344 224.838 62.0042 226.892 61.4459 227.593C59.9936 229.418 61.4539 229.701 62.311 231.368C62.4391 231.618 63.2086 232.723 62.5087 232.859C60.8642 233.179 59.0301 233.035 57.3554 233.256C55.2255 233.537 53.3693 233.913 51.4112 234.639" stroke="#FF7F11" stroke-width="3" stroke-linecap="round"/>
<path d="M53.954 231.712C54.0493 230.692 54.5408 230.05 55.3013 229.403C55.4483 229.278 55.6226 229.047 55.8338 229.024C56.0856 228.997 55.4172 229.335 55.1682 229.381C54.7796 229.452 54.2411 229.514 53.8566 229.4C53.5891 229.32 53.6672 228.963 53.6618 228.755C53.641 227.957 53.1625 226.572 53.9248 225.944C54.1996 225.718 54.648 225.799 54.9799 225.799C55.4909 225.799 55.9986 225.787 56.4669 225.572C56.6758 225.476 56.8711 225.399 57.0967 225.344C57.2596 225.305 57.2903 225.135 57.4474 225.117C57.7629 225.08 58.1164 224.862 58.4538 224.832C58.6137 224.818 58.7827 224.872 58.9213 224.776C59.1059 224.647 59.4872 224.548 59.7038 224.548C59.8936 224.548 60.1685 224.42 60.3564 224.368C60.5178 224.323 60.6012 224.197 60.7784 224.163C61.0427 224.113 61.3085 224.019 61.5739 223.986C61.7265 223.967 61.832 223.998 61.931 223.869C61.9789 223.807 62.0861 223.732 62.1615 223.708C62.6878 223.542 62.0278 223.525 61.8303 223.525C61.4381 223.525 60.7859 223.42 60.4116 223.582C60.0632 223.732 59.6834 223.838 59.3304 223.992C59.1199 224.084 58.8492 224.192 58.6291 224.251C58.4876 224.29 58.2499 224.368 58.1162 224.378C58.0462 224.383 57.7679 224.501 57.7201 224.551C57.5 224.785 57.1684 224.686 56.9019 224.804C56.7102 224.889 56.5086 224.972 56.3208 225.054C56.1943 225.108 56.0334 225.014 55.9085 225.092C55.7087 225.215 55.2747 225.281 55.0384 225.287C54.7892 225.294 53.9782 225.275 53.8371 225.458" stroke="#FF7F11" stroke-width="3" stroke-linecap="round"/>
<path d="M52.493 225.515C52.3546 225.498 52.9444 225.327 53.006 225.3C53.3754 225.138 53.6685 224.889 54.0904 224.889C54.4773 224.889 55.1669 224.914 55.4507 224.659C55.6573 224.473 56.0976 224.555 56.363 224.479C56.7769 224.359 57.2125 224.314 57.6357 224.22C58.1176 224.113 58.6354 224.107 59.1259 224.033C59.2594 224.013 59.3304 223.923 59.4603 223.923C59.7144 223.923 59.7837 223.835 59.9993 223.759C60.2623 223.666 60.54 223.73 60.8044 223.651C60.9496 223.608 61.3758 223.521 61.3758 223.695" stroke="#FF7F11" stroke-width="3" stroke-linecap="round"/>
<path d="M29.7019 246.029C29.8511 245.63 30.5406 245.206 30.8484 244.92C31.406 244.402 31.9496 243.854 32.603 243.453C33.5411 242.877 34.3407 242.098 35.219 241.438C36.0403 240.821 36.9451 240.359 37.7844 239.768C38.743 239.093 39.7235 238.413 40.7044 237.771C41.3615 237.341 42.1519 236.905 42.6743 236.317C43.652 235.217 41.1591 235.279 40.5777 235.263C38.4067 235.205 36.247 235.158 34.0725 235.158C33.3337 235.158 32.5944 235.151 31.8556 235.158C31.0318 235.167 30.5535 235.402 29.8159 235.664C29.674 235.714 29.2543 235.824 29.5689 236.04C29.7804 236.185 30.1372 236.154 30.3733 236.157C31.356 236.17 32.3426 236.17 33.3251 236.157C35.6173 236.127 37.6457 235.641 39.7923 234.906C40.2529 234.748 40.9538 234.626 41.3252 234.265C41.7706 233.832 40.2932 233.859 40.1533 233.852C38.6954 233.774 37.2232 233.827 35.7637 233.827C33.5362 233.827 31.3087 233.827 29.0812 233.827C28.1844 233.827 29.9788 233.657 30.006 233.655C32.5509 233.407 35.035 232.791 37.5563 232.385C37.5798 232.382 38.9742 232.284 38.7978 231.898C38.6537 231.583 35.8698 231.831 35.5167 231.831C32.9466 231.831 30.4492 232.086 27.922 232.496C27.4213 232.577 29.0295 232.607 29.0305 232.607C32.0178 232.553 34.9067 232.02 37.797 231.338C37.8391 231.328 39.5894 231.045 39.3236 230.999C37.8279 230.739 36.1442 230.937 34.6299 230.943C32.9592 230.951 27.9679 231.387 29.6386 231.387C31.5786 231.387 33.5765 231.526 35.504 231.27C36.4506 231.144 37.8333 231.148 38.6585 230.666C38.8712 230.542 39.0774 230.443 39.2792 230.302C39.3585 230.247 38.1499 230.167 38.0567 230.167C36.1827 230.167 34.2354 230.009 32.375 230.253C31.2229 230.405 27.8456 231.278 28.9798 231.03C29.8836 230.832 30.6251 230.032 31.5768 229.84C32.076 229.74 32.5776 229.649 33.0717 229.526C33.3085 229.467 33.4173 229.239 33.6418 229.181C33.9137 229.11 34.2144 229.211 34.4906 229.144C34.7777 229.074 34.9823 228.947 35.2887 228.947C36.2797 228.947 37.1797 228.838 38.1517 228.669C38.1961 228.662 39.1413 228.387 38.9245 228.306C38.5688 228.173 37.9939 228.281 37.6133 228.281C36.8623 228.281 35.9946 228.18 35.2507 228.306C34.3714 228.455 33.4704 228.356 32.603 228.509C32.1431 228.59 30.614 228.427 30.614 229.058" stroke="#FF7F11" stroke-width="3" stroke-linecap="round"/>
<path d="M32.3243 232.829C31.0287 232.532 29.9263 231.846 28.6758 231.498" stroke="#FF7F11" stroke-width="3" stroke-linecap="round"/>
<path d="M15.6781 229.39C18.8499 229.39 21.9628 229.279 25.1413 229.279" stroke="#FF7F11" stroke-linecap="round"/>
<path d="M15.5714 229.336C15.6403 229.336 15.7087 229.351 15.7787 229.351C15.8119 229.351 15.756 229.351 15.748 229.351C15.7091 229.351 15.6949 229.331 15.6729 229.3C15.6141 229.217 15.7568 229.235 15.7863 229.21C15.8237 229.177 15.8727 229.156 15.9245 229.156C16.127 229.156 16.3294 229.156 16.5318 229.156C17.2832 229.156 18.0265 229.097 18.7776 229.097C19.3437 229.097 19.9098 229.112 20.4767 229.112C20.6823 229.112 20.8878 229.112 21.0934 229.112C21.1768 229.112 21.2579 229.11 21.3407 229.1C21.4067 229.092 21.4841 229.111 21.5472 229.09C21.648 229.056 21.7815 229.04 21.89 229.037C22.1206 229.031 22.3516 229.03 22.5818 229.015C22.8274 228.998 23.073 229.017 23.3179 228.992C23.4059 228.983 23.4869 228.951 23.5755 228.94C23.6653 228.929 23.7557 228.921 23.8459 228.911C23.9639 228.897 24.0846 228.903 24.2032 228.903C24.3173 228.903 24.4341 228.883 24.5461 228.863C24.6411 228.846 24.7804 228.836 24.8634 228.783C24.8723 228.777 24.9297 228.742 24.8907 228.738C24.7806 228.728 24.6748 228.696 24.5632 228.693C24.4083 228.69 24.5123 228.674 24.5376 228.723" stroke="#FF7F11" stroke-linecap="round"/>
<path d="M24.5683 228.768C24.4588 228.768 24.3774 228.843 24.2689 228.843C24.1413 228.843 24.0136 228.843 23.886 228.843C23.8115 228.843 23.699 228.891 23.6352 228.926C23.561 228.967 23.4485 228.964 23.3657 228.977C23.2968 228.988 23.2388 229.007 23.1678 229.007C23.0345 229.007 22.9082 229.052 22.7754 229.064C22.6007 229.079 22.4299 229.117 22.2551 229.133C22.0085 229.157 21.7705 229.186 21.5216 229.186C21.1734 229.186 20.824 229.226 20.4767 229.215C20.1191 229.203 19.7648 229.186 19.4063 229.186C19.0977 229.186 18.7908 229.181 18.4825 229.171C17.8162 229.151 17.1551 229.082 16.4892 229.082C16.2168 229.082 15.9444 229.082 15.6721 229.082C15.6542 229.082 15.5374 229.082 15.6175 229.082C15.9222 229.082 16.2296 229.094 16.5335 229.072C16.8669 229.048 17.1916 228.992 17.5264 228.992C17.766 228.992 18.0057 228.992 18.2454 228.992C18.4197 228.992 18.59 229.019 18.7631 229.022C19.0309 229.026 19.2989 229.017 19.5666 229.023C20.6395 229.047 21.7159 229.053 22.7857 228.956C23.2824 228.911 23.781 228.878 24.2766 228.82C24.3606 228.81 24.4469 228.82 24.5299 228.803C24.6075 228.787 24.6737 228.753 24.7543 228.753C24.8459 228.753 24.9491 228.747 25.0289 228.708" stroke="#FF7F11" stroke-linecap="round"/>
<path d="M11.0034 235.713C19.5103 235.713 28.0631 235.068 36.2135 232.496C37.235 232.174 34.8625 231.471 34.7946 231.461C33.1026 231.205 31.3306 231.265 29.6259 231.301C27.2775 231.35 24.9055 231.468 22.6076 231.979C19.9635 232.566 17.4118 233.551 14.8039 234.271C13.4431 234.647 12.0546 234.926 10.6994 235.319C9.6591 235.62 8.68321 235.815 7.7603 236.391C6.87409 236.944 8.4324 236.895 8.84979 236.909C14.377 237.088 19.7 236.364 25.002 234.838C25.6397 234.654 27.4751 234.091 26.8135 234.025C25.7261 233.915 24.5982 233.93 23.5071 233.938C20.3039 233.964 17.321 234.507 14.2465 235.331C13.7102 235.475 13.8424 235.516 14.3479 235.491C16.0895 235.406 17.7553 234.873 19.4025 234.357C21.9832 233.55 24.5795 232.515 27.2316 231.942C29.4122 231.47 22.887 232.963 20.7454 233.581C19.976 233.803 19.1898 234.063 18.3891 234.16C17.9756 234.21 19.2072 233.972 19.5799 233.79C21.3991 232.905 23.1562 232.011 25.0653 231.301C26.0616 230.93 29.1206 230.145 28.055 230.191C27.4551 230.218 27.3076 230.435 27.3076 230.943" stroke="#FF7F11" stroke-linecap="round"/>
<path d="M13.7398 232.163H38.0251" stroke="#FF7F11" stroke-linecap="round"/>
<path d="M13.7398 231.276H25.2554" stroke="#FF7F11" stroke-linecap="round"/>
<path d="M13.6258 230.167H28.2197" stroke="#FF7F11" stroke-linecap="round"/>
<path d="M17.3313 230.333L21.8349 234.715" stroke="#FF7F11" stroke-linecap="round"/>
<path d="M19.6686 231.276C19.618 231.276 20.5877 231.121 20.3907 231.079C19.5567 230.899 18.5437 231.054 17.6923 231.054C17.3587 231.054 16.3593 231.025 16.6915 231.054C17.9487 231.165 19.1712 231.276 20.4414 231.276C22.0952 231.276 24.0272 231.388 25.6228 230.857C26.7823 230.471 23.1744 230.721 21.9489 230.721C21.9397 230.721 22.3407 230.721 22.462 230.721C23.0179 230.721 22.4297 230.721 22.2213 230.721C21.1086 230.721 19.9959 230.721 18.8832 230.721C17.2645 230.721 15.6911 231.054 14.0692 231.054C13.8813 231.054 13.3605 231 13.8475 231.122C14.9162 231.389 16.0233 231.389 17.1159 231.498C17.1703 231.503 18.975 231.681 18.2941 231.714C17.2197 231.765 16.1364 231.813 15.0827 232.053C14.2322 232.246 15.5609 232.61 15.7414 232.656C16.2154 232.78 16.691 232.854 17.1603 232.965C17.4812 233.04 16.9432 233.151 16.8562 233.186C16.5142 233.325 15.9016 233.465 15.6654 233.766C15.4739 234.009 17.7529 233.647 17.781 233.642C20.3784 233.245 22.8128 232.499 25.3314 231.794C25.6436 231.706 26.3523 231.489 25.6861 231.868C24.8628 232.335 24.0191 232.771 23.1904 233.23C21.4702 234.181 19.939 235.496 18.1864 236.366C16.038 237.433 22.7599 234.835 24.926 233.803C25.0066 233.764 25.7204 233.35 25.268 233.655C23.8993 234.577 22.5513 235.54 21.0811 236.305C20.8141 236.444 20.551 236.668 20.2767 236.785C19.8996 236.946 20.71 236.097 20.9925 235.805C22.1173 234.644 23.3674 233.535 24.7233 232.632C25.4942 232.119 25.6341 232.29 25.1857 232.921C24.5266 233.849 23.6282 234.69 22.728 235.399C22.4723 235.6 22.3265 235.087 22.2213 234.918C21.8294 234.288 21.6865 233.979 20.8658 234.086C18.8972 234.344 17.0567 235.228 15.3234 236.126C14.4005 236.604 15.6938 235.196 15.8428 234.98C16.1878 234.48 16.5902 233.9 16.5902 233.273C16.5902 232.49 17.782 232.274 18.4398 232.274C18.8729 232.274 19.3341 232.706 18.6741 232.823C17.6878 232.997 17.4207 233.512 18.0661 234.4C18.4432 234.92 19.0802 235.562 19.7066 235.805C20.0007 235.92 19.8966 234.633 19.8966 234.481C19.8966 234.159 19.9789 233.353 19.4406 233.384C19.2247 233.396 19.3091 234.143 19.3392 234.29C19.66 235.85 21.53 235.478 22.7027 235.214C27.5899 234.112 32.1559 232.02 36.9166 230.53C39.6386 229.679 42.4358 229.092 45.1447 228.195C45.4369 228.098 46.0717 227.922 45.8668 227.468C45.6624 227.015 43.6068 227.283 43.2065 227.283C42.3041 227.283 41.3538 227.124 40.6855 227.819C39.8489 228.689 38.9263 229.281 37.9427 229.988C36.7581 230.84 35.609 231.777 34.4969 232.718C33.2298 233.79 31.9966 234.904 30.7154 235.96C29.8245 236.693 28.91 237.303 27.9284 237.907C27.598 238.11 27.3309 238.312 27.0796 238.597" stroke="#FF7F11" stroke-linecap="round"/>
<path d="M171.423 182.691C170.056 182.923 169.405 184.353 168.763 185.366C168.268 186.146 167.535 186.738 167.065 187.523C166.812 187.944 166.431 188.394 166.248 188.848C166.072 189.285 166.248 189.767 166.292 190.21C166.336 190.646 166.64 191.295 166.805 191.707C167.017 192.233 167.97 190.478 168.003 190.173C168.174 188.548 168.366 186.962 169.744 185.779C169.893 185.651 171.092 184.497 170.473 185.255C169.528 186.413 168.171 187.256 166.97 188.133C166.096 188.771 165.215 189.403 164.367 190.074C164.308 190.121 163.888 190.389 163.917 190.561C163.971 190.873 164.745 190.332 164.785 190.308C166.163 189.484 167.554 188.652 168.877 187.745C170.072 186.925 171.134 186.106 172.468 185.495C172.575 185.447 171.659 186.851 171.575 186.956C170.244 188.603 168.841 190.231 167.356 191.75C167.113 192 168.129 190.913 168.262 190.752C168.556 190.396 168.857 189.765 169.269 189.519C169.485 189.391 170.402 188.621 170.486 188.792C170.671 189.169 170.954 190.247 170.625 190.567" stroke="#FF7F11" stroke-linecap="round"/>
<path d="M173.475 184.133C171.5 187.521 168.69 190.33 166.527 193.593C166.303 193.931 165.932 194.201 165.748 194.56C165.282 195.465 166.792 192.803 167.42 191.997C169.391 189.467 171.871 187.466 174.172 185.243C174.794 184.642 175.822 183.884 175.99 182.987C176.047 182.681 175.895 182.835 175.376 182.999C171.246 184.303 167.818 186.993 163.999 188.928C162.887 189.491 161.147 189.978 160.25 190.9C160.085 191.069 160.134 191.333 159.958 191.504C158.617 192.809 162.821 189.071 164.373 188.01C165.877 186.981 167.446 185.907 168.731 184.657C169.037 184.359 169.367 184.082 169.7 183.813C169.869 183.677 170.423 183.441 170.207 183.406C169.865 183.351 168.902 184.307 168.668 184.503C167.927 185.123 167.013 185.75 166.071 186.025C165.581 186.168 165.276 186.539 164.816 186.734C164.171 187.009 164.126 187.06 164.126 187.812C164.126 188.192 163.98 188.883 164.177 189.236C164.359 189.562 165.013 189.769 165.323 189.957C165.75 190.215 166.976 190.701 166.976 191.294C166.976 191.836 165.525 193.82 165.38 192.976C165.307 192.546 165.509 191.473 164.981 191.245C164.817 191.174 164.499 191.302 164.335 191.337C163.52 191.513 165.943 190.876 166.698 190.53C167.318 190.245 168.087 189.921 168.611 189.47C168.824 189.287 169.602 188.58 169.548 188.595C168.571 188.87 167.662 189.329 166.748 189.753C164.125 190.972 161.711 192.404 159.211 193.845C157.28 194.959 155.13 195.918 153.402 197.333C152.099 198.401 150.31 199.169 148.785 199.872C147.405 200.508 145.963 201.146 144.522 201.641C143.76 201.902 145.954 200.916 146.669 200.55C148.994 199.36 151.168 197.874 153.542 196.779C154.356 196.403 155.126 196.089 155.904 195.632C156.513 195.275 157.138 194.942 157.735 194.566C157.86 194.487 158.132 194.345 157.792 194.418C157.185 194.55 156.281 194.863 155.79 195.041C153.729 195.788 151.731 196.669 149.773 197.641C149.037 198.007 148.232 198.605 147.416 198.837C147.327 198.862 146.614 199.025 146.91 198.806C148.108 197.92 149.602 197.252 150.951 196.618C152.207 196.029 153.439 195.325 154.644 194.64C155.812 193.976 157.083 193.374 158.172 192.588C158.405 192.42 158.28 192.423 158.039 192.508C157.017 192.87 156.032 193.373 155.037 193.796C153.122 194.609 151.281 195.583 149.329 196.31C148.406 196.655 147.543 197.093 146.65 197.506C145.618 197.983 144.481 198.224 143.464 198.726C143.447 198.734 143.161 198.909 143.407 198.862C143.935 198.759 144.517 198.308 144.965 198.054C146.403 197.241 147.749 196.292 149.228 195.546C151.156 194.575 153.073 193.556 154.929 192.477C155.614 192.079 156.362 191.812 157.044 191.387C157.697 190.98 155.732 192.193 155.043 192.539C152.917 193.606 150.737 194.825 148.43 195.423C147.854 195.572 147.423 195.988 146.853 196.162C146.736 196.198 145.934 196.268 145.998 196.483C146.034 196.608 147.236 195.723 147.302 195.688C147.815 195.416 148.503 195.509 148.911 195.004C149.38 194.424 150.475 194.396 151.071 193.944C151.681 193.483 152.639 193.3 153.124 192.724C153.868 191.838 153.085 192.679 152.566 192.792C152.317 192.845 152.088 193.229 151.755 193.229C151.385 193.229 151.229 193.621 150.9 193.667C150.441 193.73 150.174 193.896 149.817 194.166C149.622 194.313 149.157 194.278 148.905 194.394C148.578 194.544 148.206 194.84 147.873 194.899C147.539 194.958 147.068 195.249 146.745 195.392C146.636 195.44 148.001 195.29 148.329 195.232C148.597 195.184 148.882 195.194 149.139 195.103C149.37 195.021 149.495 194.779 149.735 194.696C150.201 194.534 150.666 194.44 151.116 194.221C151.75 193.913 152.226 193.68 152.636 193.167C153.083 192.608 153.679 191.7 154.321 191.343C154.445 191.274 154.792 191.084 154.428 191.128C153.838 191.2 153.335 191.81 152.801 192.046C152.303 192.265 151.634 192.416 151.192 192.748C150.542 193.236 149.633 194.29 148.734 194.338C148.4 194.356 148.113 194.464 147.797 194.585C147.507 194.695 146.851 194.912 146.618 195.115C146.346 195.352 146.044 195.443 146.454 195.066C146.621 194.911 146.989 194.791 147.226 194.782C147.614 194.767 147.866 194.834 148.164 194.56C148.372 194.369 148.687 194.338 148.962 194.338C149.537 194.338 150.26 193.822 150.786 193.537C150.964 193.441 150.969 193.27 151.185 193.223C151.256 193.208 151.509 193.137 151.559 193.094C151.891 192.803 152.525 192.369 152.953 192.231" stroke="#FF7F11" stroke-width="3" stroke-linecap="round"/>
<path d="M155.347 191.898C155.954 191.361 156.91 191.233 157.621 190.844C158.775 190.213 159.892 189.551 161.048 188.909C161.53 188.641 162.057 188.609 162.53 188.299C162.981 188.004 163.479 187.831 163.898 187.51C164.446 187.092 164.843 186.453 165.551 186.241C166.326 186.009 167.07 185.562 167.749 185.169C168.104 184.963 168.492 184.763 168.826 184.528C169.151 184.298 169.089 184.318 168.801 184.349C167.936 184.443 166.994 184.908 166.153 185.169C165.645 185.326 165.366 185.845 164.874 186.019C164.547 186.134 164.415 186.599 164.101 186.796C163.737 187.023 163.176 187.572 162.758 187.572" stroke="#FF7F11" stroke-width="3" stroke-linecap="round"/>
<path d="M163.898 187.905L164.012 188.016" stroke="#FF7F11" stroke-linecap="round"/>
<path d="M164.012 188.016C164.506 187.968 165.049 187.341 165.311 186.974C165.485 186.729 163.697 186.795 163.442 186.82C162.96 186.867 162.466 186.944 161.998 187.067C161.57 187.179 162.143 187.055 162.251 187.011C162.806 186.788 163.012 186.496 163.448 186.204C163.655 186.066 163.983 186.092 164.215 185.994C164.473 185.886 164.545 185.705 164.747 185.551C165.081 185.295 165.449 185.11 165.779 184.861C166.536 184.288 167.448 183.872 168.256 183.357C169.014 182.873 169.73 182.379 170.473 181.915C171.035 181.563 171.587 181.144 172.228 180.91C172.567 180.786 172.71 180.45 172.994 180.251C173.275 180.054 173.373 180.017 173.754 179.918C173.953 179.867 174.059 179.756 174.159 179.585C174.312 179.327 174.486 179.377 174.742 179.253C175.108 179.075 175.371 178.745 175.781 178.587C175.967 178.515 176.919 177.977 176.25 178.211C175.738 178.39 175.237 178.776 174.844 179.142C173.893 180.026 172.706 180.416 171.645 181.138C171.331 181.352 170.773 181.682 170.397 181.779C170.029 181.874 170.028 182.149 169.65 182.248C168.72 182.489 168.207 182.984 167.496 183.492C167.211 183.696 166.882 183.692 166.577 183.856C166.229 184.044 165.899 184.262 165.545 184.441C164.71 184.863 163.929 185.317 163.056 185.686C162.832 185.781 161.695 186.352 161.903 186.352C162.72 186.352 163.762 186.477 164.468 186.019" stroke="#FF7F11" stroke-linecap="round"/>
<path d="M145.086 194.227C145.15 193.696 146.434 193.692 146.859 193.562C147.558 193.349 148.395 193.214 149.032 192.89C149.638 192.583 150.294 192.596 150.894 192.231C151.411 191.917 152.057 191.746 152.598 191.43C153.956 190.637 155.364 189.977 156.715 189.174C157.441 188.742 158.115 188.389 158.881 188.016C159.451 187.738 160.069 187.586 160.63 187.295C161.166 187.016 161.671 186.685 162.302 186.685" stroke="#FF7F11" stroke-linecap="round"/>
<path d="M136.876 197.666C136.314 197.666 135.693 197.602 135.154 197.777C134.59 197.96 135.718 198.11 135.85 198.11" stroke="#FF7F11" stroke-linecap="round"/>
<path d="M138.701 198.11C136.841 198.11 134.822 198.567 133.228 199.527C132.592 199.91 133.515 199.885 133.766 199.885C134.618 199.885 137.119 200.081 136.319 199.798C135.36 199.459 133.666 199.894 132.835 200.334C132.25 200.645 131.667 200.866 131.049 201.105C130.903 201.161 130.488 201.271 130.403 201.438C130.333 201.573 131.763 201.561 131.955 201.542C132.327 201.506 131.941 201.438 131.796 201.438C131.275 201.438 130.801 201.586 130.321 201.776C129.87 201.955 129.406 202.107 128.959 202.288C128.16 202.611 129.68 202.391 129.845 202.337C130.735 202.051 131.095 201.737 131.682 201.166C131.84 201.013 132.418 200.23 132.202 200.217C131.874 200.197 131.442 200.154 131.119 200.224C130.957 200.258 129.988 200.705 129.972 200.858C129.969 200.884 131.444 200.886 131.423 200.889C130.505 201.026 129.46 201.816 128.743 202.362C128.131 202.829 128.97 202.676 129.351 202.608C131.266 202.267 133.169 201.04 134.887 200.217C136.924 199.243 138.986 198.371 141.089 197.543C141.615 197.335 142.138 197.118 142.666 196.914C142.877 196.833 143.428 196.798 143.28 196.631C142.869 196.164 140.543 197.994 140.373 198.11C137.811 199.859 135.224 201.552 132.734 203.397C132.073 203.887 131.361 204.298 130.675 204.753C129.698 205.402 130.729 204.665 131.169 204.439C132.751 203.628 134.355 202.858 135.926 202.029C136.726 201.607 137.517 201.17 138.302 200.723C138.456 200.634 138.9 200.349 138.777 200.476C137.249 202.048 132.515 206.617 134.14 205.141C135.483 203.922 136.502 202.268 138.017 201.216C138.158 201.117 138.074 202.476 138.074 202.485C138.03 203.327 138.017 204.169 138.017 205.012C138.017 205.343 137.914 204.229 137.599 204.106C137.266 203.977 136.807 203.976 136.458 203.989C135.786 204.014 135.117 204.15 134.469 204.322C134.34 204.356 133.258 204.631 134.127 204.654C135.084 204.68 136.026 204.539 136.94 204.272C138.151 203.919 137.084 204.163 136.547 204.432C136.013 204.701 132.816 207.456 132.202 206.823C131.805 206.415 132.088 205.028 132.088 204.513C132.088 204.271 132.233 203.467 131.974 203.348C131.473 203.117 130.429 203.352 129.972 203.557C129.682 203.688 129.396 203.85 129.123 204.013C128.561 204.35 130.369 203.589 130.986 203.36C133.985 202.25 137.012 201.138 139.93 199.835C140.296 199.672 140.626 199.284 140.525 199.774" stroke="#FF7F11" stroke-linecap="round"/>
<path d="M149.076 197.777C146.634 199.257 144.56 201.203 142.007 202.541C140.391 203.387 138.714 204.126 137.054 204.888C135.595 205.558 134.005 205.954 132.595 206.7C132.207 206.905 131.597 207.231 131.125 207.206C130.594 207.177 130.518 206.555 130.498 206.152C130.453 205.259 130.561 204.586 131.125 203.841C132.614 201.875 134.53 201.049 136.94 200.55C138.158 200.298 135.906 201.99 135.73 202.128C134.157 203.357 132.381 204.242 130.758 205.381C130.05 205.878 130.844 205.589 131.182 205.449C133.595 204.452 136.011 203.451 138.422 202.448C140.103 201.749 137.911 202.155 137.428 202.325C134.969 203.189 132.681 204.489 130.251 205.431C128.987 205.92 127.783 206.189 126.431 206.257C125.125 206.322 127.205 205.076 127.489 204.852C129.077 203.596 130.695 202.085 132.626 201.32C133.581 200.942 134.913 200.53 135.616 199.718C136.75 198.409 137.711 198.628 139.328 198.547C140.237 198.502 141.152 198.134 142.02 197.888C143.18 197.559 144.313 197.138 145.447 196.736C148.426 195.679 151.407 194.595 154.428 193.66C156.875 192.904 159.28 192.203 161.573 191.066C163.795 189.965 166.214 188.891 168.573 188.127" stroke="#FF7F11" stroke-width="3" stroke-linecap="round"/>
<path d="M105.488 278.504C105.488 276.763 105.941 275.145 106.491 273.497C106.666 272.972 106.688 272.449 106.812 271.915C106.937 271.376 107.181 270.871 107.319 270.336C107.381 270.095 107.398 270.019 107.559 269.833C107.841 269.51 108.206 269.464 108.647 269.464C108.943 269.464 108.681 269.685 108.566 269.811C108.243 270.165 107.804 270.393 107.429 270.689C107.278 270.809 107.198 270.888 107.179 270.68C107.157 270.435 107.013 270.232 106.946 270.001C106.784 269.45 105.961 269.613 105.54 269.489C105.342 269.431 105.166 269.35 104.962 269.35" stroke="#FF7F11" stroke-width="3" stroke-linecap="round"/>
<path d="M121.208 274.524C121.106 274.499 121.075 273.713 121.02 273.57C120.938 273.36 120.447 273.444 120.299 273.444C119.861 273.444 119.489 273.496 119.15 273.216C119.002 273.095 118.975 272.865 118.903 272.698C118.734 272.309 118.63 271.928 118.51 271.526C118.397 271.149 118.298 270.716 118.143 270.351C118.019 270.057 117.702 269.743 117.702 269.423C117.702 269.192 117.662 268.922 117.705 268.693C117.754 268.43 117.916 268.51 118.085 268.428C118.628 268.164 119.326 268.27 119.948 268.27C120.356 268.27 120.764 268.27 121.172 268.27C121.696 268.27 122.306 268.169 122.818 268.282C123.232 268.374 123.859 268.326 124.188 268.611C124.631 268.994 124.798 269.712 124.322 270.203C124.062 270.471 123.53 270.636 123.198 270.794C122.804 270.981 122.401 271.129 121.961 271.166C121.486 271.207 121.924 272.693 122.013 272.885C122.582 274.101 123.879 274.193 125.101 274.123C125.652 274.091 124.557 272.977 124.416 272.894C123.868 272.57 123.262 272.454 122.637 272.363C121.852 272.249 121.164 272.133 120.422 271.845C119.504 271.49 118.605 271.039 117.708 270.632C116.528 270.098 115.223 269.817 113.987 269.432C113.334 269.229 112.659 269.129 111.994 268.971C111.36 268.82 110.749 268.579 110.127 268.387C109.32 268.138 108.479 267.941 107.663 267.714C106.909 267.504 106.092 267.37 105.312 267.306C105.042 267.285 104.792 267.217 104.52 267.19C104.267 267.164 104.022 267.092 103.767 267.079C103.671 267.074 103.437 267.122 103.358 267.044C103.257 266.946 103.039 266.689 102.981 267.029C102.92 267.387 102.999 267.684 103.105 268.011C103.202 268.313 103.224 268.057 103.15 267.903C103.054 267.704 103.069 267.459 103.02 267.246C103.005 267.178 103.007 266.966 102.962 266.918C102.899 266.851 102.76 266.901 102.741 266.779C102.717 266.621 102.61 266.433 102.77 266.311C102.945 266.179 103.348 266.305 103.537 266.334C103.832 266.378 104.277 266.23 104.553 266.349C104.958 266.525 105.335 266.663 105.825 266.678C106.097 266.686 106.475 266.723 106.741 266.804C107.017 266.889 107.115 267.076 107.439 267.076C107.803 267.076 108.119 267.252 108.468 267.3C108.841 267.352 109.204 267.644 109.579 267.644C110.169 267.644 111.942 267.644 111.351 267.644C110.973 267.644 110.607 267.643 110.234 267.575C110.057 267.543 109.818 267.391 109.634 267.329C109.498 267.282 109.389 267.246 109.244 267.246C109.232 267.246 109.536 267.246 109.63 267.246C109.994 267.246 110.358 267.246 110.721 267.246C110.823 267.246 111.325 267.289 111.225 267.3C110.608 267.371 109.845 267.361 109.234 267.291C108.801 267.241 108.409 266.969 107.975 266.88C107.483 266.779 107.075 266.527 106.595 266.425C105.736 266.242 104.791 266.166 103.91 266.166" stroke="#FF7F11" stroke-width="5" stroke-linecap="round"/>
<path d="M116.416 276.343C116.416 275.027 116.416 273.711 116.416 272.395C116.416 271.409 116.43 270.551 116.812 269.622C116.948 269.291 117.051 268.91 117.221 268.598C117.342 268.377 117.389 268.093 117.526 267.884C117.58 267.803 117.664 268.076 117.689 268.156C117.781 268.453 118.495 268.449 118.228 268.838" stroke="#FF7F11" stroke-width="5" stroke-linecap="round"/>
<path d="M138.681 272.079C139.874 272.079 141.063 272.198 142.253 272.275C143.425 272.351 144.633 272.511 145.788 272.717C146.43 272.831 147.296 273.087 147.727 273.611C148.709 274.805 146.251 275.112 145.525 275.146C145.289 275.157 145.287 275.096 145.168 274.922" stroke="#FF7F11" stroke-width="5" stroke-linecap="round"/>
<path d="M138.915 269.634C139.873 269.453 140.928 269.49 141.892 269.435C143.648 269.335 145.386 269.243 147.142 269.369C147.749 269.412 148.559 269.492 149.175 269.571C149.229 269.578 149.817 269.611 149.928 269.748C149.974 269.806 150 269.894 150.051 269.944C150.201 270.09 150.253 270.111 150.253 270.351C150.253 270.649 150.331 270.754 150.194 270.487" stroke="#FF7F11" stroke-width="5" stroke-linecap="round"/>
<path d="M148.324 268.611C147.897 268.611 147.464 268.588 147.038 268.611C146.773 268.625 146.432 268.772 146.158 268.838C145.962 268.886 145.737 268.899 145.551 268.981C145.34 269.074 145.174 269.038 144.947 269.078C144.375 269.18 143.793 269.18 143.211 269.18C142.86 269.18 142.509 269.18 142.159 269.18C141.979 269.18 142.176 268.952 142.279 268.952C142.448 268.952 142.529 268.891 142.655 268.782C143.005 268.48 142.69 268.611 143.035 268.611C143.376 268.611 143.717 268.611 144.058 268.611" stroke="#FF7F11" stroke-width="5" stroke-linecap="round"/>
<path d="M144.233 268.611C144.028 268.611 143.791 268.611 144.146 268.611C144.292 268.611 144.438 268.611 144.584 268.611C144.964 268.611 145.344 268.611 145.723 268.611C146.173 268.611 148.616 268.416 148.616 268.838" stroke="#FF7F11" stroke-width="5" stroke-linecap="round"/>
<path d="M146.921 269.066C146.579 269.066 145.792 269.19 145.519 268.977C145.407 268.89 145.097 268.953 144.947 268.908C144.805 268.865 144.616 268.895 144.467 268.895C144.01 268.895 143.792 268.657 143.415 268.453C143.225 268.35 142.995 268.384 142.785 268.384C142.623 268.384 142.568 268.654 142.48 268.782" stroke="#FF7F11" stroke-width="5" stroke-linecap="round"/>
<path d="M158.785 271.681C158.849 271.929 160.168 271.953 160.343 271.972C161.145 272.059 161.933 272.206 162.739 272.281C163.896 272.389 165.054 272.432 166.213 272.509C167.112 272.568 168.007 272.655 168.908 272.692C169.475 272.715 170.042 272.813 170.609 272.818C171.084 272.822 170.865 272.531 170.68 272.218C170.452 271.828 170.12 271.56 169.7 271.378C169.252 271.184 168.722 271.091 168.239 271.027C166.971 270.861 165.679 270.729 164.401 270.664C162.612 270.574 160.819 270.601 159.028 270.601C158.178 270.601 157.241 270.706 156.421 270.443C155.888 270.272 156.224 269.454 156.538 269.23C157.321 268.672 158.378 268.598 159.314 268.491C160.461 268.36 161.615 268.384 162.778 268.384C163.567 268.384 169.414 268.562 169.414 268.241C169.414 268.016 168.84 267.824 168.661 267.815C168.342 267.799 168.017 267.815 167.697 267.815C166.798 267.815 165.911 267.758 165.015 267.758C164.381 267.758 163.747 267.758 163.113 267.758C162.934 267.758 162.021 267.886 161.895 267.746C161.852 267.698 162.116 267.701 162.129 267.701C162.35 267.701 162.57 267.701 162.791 267.701C162.956 267.701 163.12 267.701 163.285 267.701" stroke="#FF7F11" stroke-width="5" stroke-linecap="round"/>
<path d="M164.336 267.701C164.707 267.701 165.052 267.734 165.421 267.771C165.593 267.788 165.904 267.754 166.06 267.821C166.179 267.873 166.209 267.929 166.353 267.929C166.859 267.929 167.374 267.986 167.869 267.986C168.033 267.986 168.436 268.053 168.567 267.954C168.616 267.917 168.186 267.745 168.09 267.714C167.783 267.615 167.289 267.701 166.966 267.701" stroke="#FF7F11" stroke-width="5" stroke-linecap="round"/>
<path d="M217.633 266.45C218.58 266.432 219.487 266.277 220.419 266.138C222.329 265.853 224.238 265.821 226.136 265.424C228.417 264.947 230.68 264.397 232.948 263.867C233.076 263.837 234.527 263.598 234.51 263.548C234.413 263.265 232.774 263.385 232.6 263.383C228.514 263.339 224.494 263.926 220.426 264.17C219.828 264.206 219.226 264.189 218.627 264.22C218.415 264.232 218.203 264.233 217.991 264.233C217.782 264.233 218.409 264.217 218.614 264.183C220.394 263.881 222.088 263.177 223.828 262.723C225.829 262.201 227.896 262.121 229.919 261.732C230.305 261.657 230.668 261.551 231.062 261.517C231.186 261.506 231.482 261.571 231.432 261.46C231.405 261.4 230.956 261.405 230.919 261.403C230.385 261.376 229.849 261.39 229.315 261.39C227.806 261.39 226.282 261.332 224.776 261.428C223.66 261.499 222.552 261.675 221.432 261.675C220.609 261.675 219.797 261.902 218.965 261.902C218.633 261.902 219.627 261.892 219.958 261.874C220.583 261.839 221.136 261.661 221.753 261.567C223.778 261.259 225.784 260.84 227.805 260.512C228.308 260.431 228.829 260.489 229.325 260.361C229.881 260.216 229.187 260.196 229.029 260.196C228.746 260.196 228.462 260.196 228.179 260.196C227.393 260.196 226.609 260.253 225.828 260.253C225.521 260.253 225.18 260.266 224.883 260.339C224.771 260.366 224.666 260.367 224.552 260.367C224.264 260.367 224.031 260.551 223.76 260.623C223.312 260.741 222.929 260.717 222.484 260.797C222.196 260.848 221.789 260.862 221.526 260.996C221.413 261.053 221.356 261.106 221.224 261.106C221.014 261.106 221.644 261.106 221.854 261.106C222.39 261.106 222.881 261.089 223.406 261.005C223.956 260.917 224.478 260.741 225.029 260.651C225.899 260.51 226.752 260.398 227.601 260.165C228.236 259.99 228.884 259.78 229.523 259.631C230.063 259.505 229.586 259.557 229.497 259.71C229.469 259.757 229.344 259.768 229.292 259.802C229.154 259.891 229.16 260.096 228.967 260.133C228.315 260.26 227.679 260.469 227.016 260.541C226.219 260.627 225.459 260.645 224.659 260.651C224.013 260.656 223.388 260.796 222.75 260.866C222.295 260.916 221.819 260.879 221.361 260.879C221.124 260.879 220.755 260.806 220.555 260.936" stroke="#FF7F11" stroke-width="5" stroke-linecap="round"/>
<path d="M233.471 260.879C236.518 259.89 239.788 259.386 242.938 258.841C247.271 258.092 251.64 257.314 256.022 256.886C257.525 256.74 259.04 256.671 260.551 256.671C261.33 256.671 258.986 256.736 258.223 256.892C258.073 256.923 257.941 256.946 257.788 256.956C257.044 257.002 256.325 257.424 255.652 257.688C254.264 258.233 252.843 258.675 251.425 259.135C249.866 259.641 248.32 260.131 246.723 260.512C244.403 261.066 242.039 261.262 239.711 261.757C239.102 261.886 238.506 261.976 237.889 262.044C237.578 262.079 238.25 261.71 238.302 261.675C239.189 261.071 240.197 260.634 241.168 260.177C242.124 259.729 243.072 259.245 244.061 258.87C245.964 258.148 248.12 257.928 249.889 256.924C249.956 256.886 250 256.694 249.902 256.671C249.036 256.473 247.888 256.567 247.025 256.706C246.316 256.82 245.564 256.918 244.866 257.082C244.407 257.19 243.971 257.283 243.496 257.297C243.095 257.308 242.665 257.417 242.282 257.537C241.926 257.648 241.583 257.626 241.217 257.682C240.627 257.773 240.028 257.865 239.428 257.865C239.148 257.865 238.872 257.922 238.594 257.922C238.387 257.922 238.964 257.722 239.168 257.692C239.414 257.655 239.594 257.581 239.853 257.581C239.871 257.581 238.817 257.865 239.386 257.865C240.269 257.865 241.234 257.986 242.107 257.834C242.726 257.726 243.289 257.5 243.837 257.218C243.981 257.144 244.155 257.054 244.314 257.025C244.688 256.958 244.943 256.826 245.288 256.684C245.72 256.507 246.119 256.303 246.561 256.16" stroke="#FF7F11" stroke-width="5" stroke-linecap="round"/>
<path d="M246.327 256.16C246.107 256.16 245.845 256.121 245.633 256.185C245.367 256.264 244.983 256.361 244.753 256.501C244.188 256.844 243.529 256.961 242.948 257.272C242.577 257.47 242.053 257.801 241.594 257.752C241.381 257.729 241.652 256.811 241.652 257.297" stroke="#FF7F11" stroke-width="5" stroke-linecap="round"/>
<path d="M253.632 259.173C254.676 258.6 255.792 258.214 256.911 257.805C258.428 257.252 259.92 256.804 261.509 256.488C262.723 256.247 263.944 256.025 265.138 255.699C265.821 255.512 266.487 255.275 267.171 255.092C268.034 254.862 266.612 254.966 266.431 254.966C265.234 254.966 264.037 254.966 262.84 254.966C261.804 254.966 260.864 255.099 259.846 255.237C258.841 255.374 257.812 255.366 256.801 255.465C256.16 255.528 255.531 255.651 254.892 255.724C254.624 255.754 254.601 255.713 254.847 255.623C255.522 255.373 256.143 255.007 256.814 254.745C258.679 254.015 260.622 253.425 262.522 252.783C263.102 252.587 263.691 252.4 264.262 252.18C264.515 252.082 264.742 251.956 265.009 251.896C265.69 251.741 265.121 251.777 264.755 251.782C263.944 251.793 263.125 252.047 262.32 252.161C261.337 252.3 260.415 252.523 259.45 252.72C259.18 252.775 258.908 252.795 258.645 252.868C258.318 252.959 258.048 253.114 257.7 253.143C257.553 253.156 256.776 253.317 257.256 253.317" stroke="#FF7F11" stroke-width="5" stroke-linecap="round"/>
<path d="M262.983 250.474C262.824 250.474 262.778 250.638 262.606 250.638C262.419 250.638 262.407 250.343 262.47 250.215C262.486 250.181 262.908 250.04 262.632 249.906" stroke="#FF7F11" stroke-linecap="round"/>
<path d="M262.632 250.076C262.455 250.229 262.182 250.285 261.96 250.332C261.593 250.41 261.285 250.53 260.97 250.705C260.757 250.823 260.571 250.993 260.353 251.1C260.109 251.218 259.764 251.223 259.499 251.302C258.784 251.515 258.196 251.746 257.454 251.785C256.935 251.812 256.465 251.952 255.941 251.952C255.428 251.952 254.905 252.081 254.402 252.17C254.158 252.214 253.874 252.267 253.629 252.29C253.389 252.314 253.177 252.456 252.944 252.464C252.717 252.472 252.541 252.5 252.324 252.575C251.502 252.857 250.678 253.102 249.847 253.361C249.019 253.619 248.062 253.632 247.204 253.702C246.87 253.73 246.611 253.883 246.295 253.939C246.025 253.987 245.745 253.982 245.47 254.031C244.972 254.12 244.53 254.307 244.045 254.419C243.66 254.508 243.245 254.524 242.853 254.58C242.269 254.665 241.705 254.837 241.113 254.896C240.783 254.929 240.489 254.913 240.165 254.994C239.779 255.091 239.384 255.179 238.99 255.237C238.439 255.319 237.875 255.523 237.347 255.705C237.043 255.81 236.762 255.827 236.513 256.04C236.422 256.117 236.33 256.103 236.217 256.103" stroke="#FF7F11" stroke-linecap="round"/>
</svg>
