<svg width="129" height="261" viewBox="0 0 129 261" fill="none" xmlns="http://www.w3.org/2000/svg">
<path d="M103.713 252.552H112.348L116.455 219.248L103.712 219.248L103.713 252.552Z" fill="#FFB8B8"/>
<path d="M129 260.569L101.863 260.57L101.863 250.085L118.515 250.085C119.892 250.084 121.255 250.356 122.527 250.882C123.799 251.409 124.955 252.182 125.929 253.155C126.902 254.129 127.675 255.284 128.202 256.556C128.729 257.828 129 259.192 129 260.569V260.569Z" fill="#2F2E41"/>
<path d="M24.0282 247.599L32.4839 249.347L43.251 217.564L30.7717 214.984L24.0282 247.599Z" fill="#FFB8B8"/>
<path d="M47.1676 260.57L20.593 255.075L22.7159 244.808L39.023 248.18C41.7461 248.743 44.134 250.364 45.6614 252.688C47.1888 255.012 47.7306 257.847 47.1676 260.57V260.57L47.1676 260.57Z" fill="#2F2E41"/>
<path d="M47.4489 140.443C46.7207 139.707 46.1628 138.82 45.8145 137.845C45.4661 136.87 45.3357 135.83 45.4326 134.8C45.5294 133.769 45.8511 132.772 46.3749 131.879C46.8988 130.985 47.6121 130.218 48.4646 129.631L41.7645 105.371L54.2053 109.405L58.6605 131.823C59.5527 133.321 59.8645 135.094 59.5369 136.806C59.2093 138.518 58.2651 140.05 56.8831 141.113C55.5011 142.175 53.7774 142.694 52.0386 142.57C50.2998 142.447 48.6668 141.69 47.4489 140.443V140.443Z" fill="#FFB8B8"/>
<path d="M101.19 240.341C100.437 240.342 99.7079 240.074 99.1342 239.586C98.5605 239.097 98.1798 238.42 98.0605 237.676L81.9689 149.008C81.934 148.782 81.8264 148.572 81.6623 148.412C81.4982 148.252 81.2865 148.15 81.0592 148.121C80.8319 148.092 80.6012 148.137 80.402 148.251C80.2029 148.364 80.0459 148.539 79.9549 148.749L44.1058 231.692C43.787 232.418 43.2089 233 42.4843 233.323C41.7597 233.646 40.9407 233.688 40.1872 233.439L27.5944 229.208C27.1838 229.07 26.8059 228.849 26.4839 228.56C26.1619 228.27 25.9028 227.917 25.7224 227.523C25.542 227.13 25.4443 226.703 25.4352 226.27C25.4261 225.837 25.5059 225.407 25.6697 225.006L43.0014 182.55L57.4703 118.492L57.5725 118.414C57.8514 118.202 85.6868 97.426 104.708 114.045C122.115 129.253 118.875 216.156 118.049 233.422C118.019 234.105 117.768 234.759 117.334 235.286C116.9 235.813 116.305 236.184 115.641 236.343L101.959 240.247C101.708 240.309 101.45 240.341 101.19 240.341Z" fill="#2F2E41"/>
<path d="M73.9136 43.3551C83.467 43.3551 91.2116 35.6105 91.2116 26.0571C91.2116 16.5037 83.467 8.75909 73.9136 8.75909C64.3602 8.75909 56.6156 16.5037 56.6156 26.0571C56.6156 35.6105 64.3602 43.3551 73.9136 43.3551Z" fill="#FFB8B8"/>
<path d="M107.547 132.695C106.819 131.959 106.261 131.073 105.913 130.098C105.565 129.123 105.434 128.083 105.531 127.052C105.628 126.022 105.95 125.024 106.473 124.131C106.997 123.238 107.711 122.471 108.563 121.883L101.863 97.6242L114.304 101.658L118.759 124.076C119.651 125.574 119.963 127.347 119.635 129.059C119.308 130.771 118.363 132.303 116.981 133.366C115.6 134.428 113.876 134.947 112.137 134.823C110.398 134.7 108.765 133.943 107.547 132.695V132.695Z" fill="#FFB8B8"/>
<path d="M54.7416 125.781C54.5015 125.78 54.2637 125.733 54.0416 125.642C46.7364 122.673 52.5613 64.7111 52.8128 62.245L52.8407 62.1395C53.0214 61.7271 53.2039 61.3232 53.3882 60.9276C55.1883 56.9258 58.2032 53.5927 62.0049 51.4016C65.8067 49.2104 70.2021 48.2726 74.5671 48.7212C79.0028 49.0621 83.2232 50.7715 86.6459 53.6135C90.0685 56.4555 92.5246 60.2898 93.675 64.5873L107.211 114.181C107.355 114.707 107.361 115.263 107.227 115.792C107.093 116.322 106.825 116.808 106.448 117.203C106.071 117.599 105.598 117.89 105.075 118.048C104.553 118.207 103.998 118.227 103.465 118.108C92.9331 115.756 67.4108 111.58 57.8962 123.579C56.7272 125.053 55.6878 125.781 54.7416 125.781Z" fill="#6C63FF"/>
<path d="M107.192 121.019C106.845 121.019 106.5 120.962 106.172 120.85C105.766 120.714 105.393 120.498 105.074 120.213C104.756 119.928 104.499 119.581 104.319 119.194L92.5383 94.0799L81.0762 61.0847C80.5853 59.6662 80.5131 58.1363 80.8683 56.6778C81.2235 55.2194 81.991 53.894 83.0792 52.8599V52.8599C83.9783 52.0075 85.0675 51.3814 86.2566 51.0333C87.4457 50.6853 88.7006 50.6254 89.9175 50.8585C91.1344 51.0917 92.2782 51.6112 93.2545 52.3741C94.2308 53.137 95.0114 54.1214 95.5317 55.2458L110.784 88.1994L122.685 109.696C122.89 110.066 123.019 110.474 123.064 110.894C123.108 111.315 123.069 111.741 122.947 112.146C122.824 112.551 122.622 112.927 122.352 113.253C122.082 113.579 121.75 113.847 121.374 114.043L108.65 120.66C108.2 120.895 107.7 121.018 107.192 121.019V121.019Z" fill="#6C63FF"/>
<path d="M55.7193 127.193C55.6052 127.193 55.4912 127.187 55.3778 127.175L41.1159 125.662C40.6912 125.617 40.2799 125.487 39.9068 125.279C39.5337 125.071 39.2066 124.789 38.9449 124.452C38.6833 124.114 38.4926 123.727 38.3843 123.314C38.2761 122.901 38.2524 122.47 38.3149 122.047L42.3666 94.6054L51.0367 60.7694C51.411 59.3157 52.1959 58.0005 53.2976 56.9809C54.3993 55.9613 55.7712 55.2804 57.2494 55.0196V55.0196C58.4698 54.8056 59.7236 54.8853 60.9071 55.252C62.0906 55.6187 63.1698 56.2619 64.0554 57.1284C64.941 57.9949 65.6076 59.0598 66.0001 60.235C66.3925 61.4102 66.4995 62.662 66.3123 63.8867L60.8244 99.7819L58.8714 124.275C58.8079 125.068 58.4486 125.809 57.8647 126.349C57.2808 126.89 56.515 127.191 55.7193 127.193V127.193Z" fill="#6C63FF"/>
<path d="M76.6467 17.6989L91.022 16.652C91.507 13.3999 90.8873 10.0791 89.2619 7.22082C87.6366 4.36255 85.0996 2.13198 82.0568 0.885921C75.9295 -1.44162 68.3243 1.14377 65.9704 4.8518C62.8707 4.58277 59.7506 5.02423 56.8473 6.14259C53.944 7.26096 51.3339 9.0268 49.2158 11.3057C47.0976 13.5847 45.5272 16.3167 44.6239 19.2939C43.7205 22.2712 43.5081 25.4152 44.0028 28.4869C44.4975 31.5586 45.6863 34.477 47.4787 37.0201C49.2711 39.5632 51.6199 41.664 54.3464 43.1627C57.073 44.6614 60.1054 45.5185 63.213 45.6688C66.3207 45.819 69.4217 45.2586 72.2801 44.03C66.3474 35.7031 69.3932 22.4688 76.6467 17.6989Z" fill="#2F2E41"/>
<path d="M50.5031 9.7585C46.0424 5.68295 40.5899 2.42512 34.5908 1.70536C28.5917 0.985591 22.0369 3.18374 18.5832 8.14146C15.1294 13.0992 15.7312 20.8055 20.5894 24.3979C22.5843 25.8729 24.0975 27.9058 24.9381 30.24C25.7787 32.5743 25.909 35.1052 25.3125 37.5134C24.7161 39.9216 23.4197 42.0992 21.5868 43.7713C19.754 45.4434 17.4669 46.5351 15.0142 46.9086C6.09431 48.2671 -0.622011 57.4581 0.0457858 66.4561C0.713582 75.4541 8.08662 83.2988 16.8807 85.3177C25.6747 87.3366 35.2967 83.8646 41.4344 77.251C47.5721 70.6375 50.3206 61.248 49.6213 52.2524C48.922 43.2568 44.9726 34.6869 39.2952 27.6742C37.7535 25.77 38.9116 22.7504 40.8925 21.3085C42.8734 19.8666 45.3959 19.4638 47.7146 18.6721C50.0332 17.8805 52.4262 16.3893 52.9609 13.9982C53.4956 11.6072 50.7847 8.81498 50.5031 9.7585Z" fill="#2F2E41"/>
</svg>
